<?xml version="1.0" encoding="UTF-8"?>
<svg version="1.1" xmlns="http://www.w3.org/2000/svg" width="800" height="450">
<path d="M0 0 C264 0 528 0 800 0 C800 148.5 800 297 800 450 C536 450 272 450 0 450 C0 301.5 0 153 0 0 Z " fill="#010101" transform="translate(0,0)"/>
<path d="M0 0 C-0.309375 0.928125 -0.309375 0.928125 -0.625 1.875 C-0.74875 2.57625 -0.8725 3.2775 -1 4 C-0.34 4.66 0.32 5.32 1 6 C1.33 6.99 1.66 7.98 2 9 C1.3915625 9.32871094 0.783125 9.65742187 0.15625 9.99609375 C-7.62245588 14.21718562 -15.34189785 18.53885904 -23.04492188 22.89599609 C-24.8037019 23.88915334 -26.56571502 24.87657989 -28.328125 25.86328125 C-51.82061422 39.11327215 -75.53238626 53.05081159 -95.29296875 71.6015625 C-97 73 -97 73 -99 73 C-99.268125 73.639375 -99.53625 74.27875 -99.8125 74.9375 C-101 77 -101 77 -104 78 C-104.69840249 79.31698754 -105.36030213 80.65351983 -106 82 C-107.19143987 83.4078163 -108.42494654 84.78059141 -109.6875 86.125 C-113.92941308 90.78567598 -117.503326 95.7659161 -121 101 C-121.33 100.34 -121.66 99.68 -122 99 C-121.22265625 97.2734375 -121.22265625 97.2734375 -120.0625 95.375 C-119.381875 94.26125 -118.70125 93.1475 -118 92 C-119.98264795 92.65589738 -119.98264795 92.65589738 -122 94 C-122.69080451 95.65680758 -123.35431174 97.32509436 -124 99 C-124.8886127 100.49618825 -125.80706587 101.97493819 -126.75 103.4375 C-132.34242488 112.61235843 -136.27428065 122.62313862 -139 133 C-139.33 133 -139.66 133 -140 133 C-138.97841992 115.63313872 -128.37030742 100.3060971 -118 87 C-117.01 85.515 -117.01 85.515 -116 84 C-117.65 84.99 -119.3 85.98 -121 87 C-120 85 -119 83 -118 81 C-118.99 81.33 -119.98 81.66 -121 82 C-121 81.34 -121 80.68 -121 80 C-120.34 80 -119.68 80 -119 80 C-119.33 79.34 -119.66 78.68 -120 78 C-125.445 83.445 -125.445 83.445 -131 89 C-131 86 -131 86 -128.8828125 83.51953125 C-127.97273437 82.62621094 -127.06265625 81.73289062 -126.125 80.8125 C-125.22007812 79.91144531 -124.31515625 79.01039062 -123.3828125 78.08203125 C-121 76 -121 76 -119 76 C-119 75.34 -119 74.68 -119 74 C-118.67 73.67 -118.34 73.34 -118 73 C-133.82736729 85.12308984 -144.88650546 99.32702275 -154 117 C-154.33 116.01 -154.66 115.02 -155 114 C-154.33333333 112.66666667 -153.66666667 111.33333333 -153 110 C-153.33 109.01 -153.66 108.02 -154 107 C-165.39495073 130.14199263 -170.14091061 153.68329835 -165.4453125 179.34375 C-164.89385478 182.6331469 -164.84541183 185.67635429 -165 189 C-170.66169244 183.33830756 -169.28837988 169.6277978 -169.38061523 162.01611328 C-169.33275938 129.91939808 -160.14685247 108.10119216 -139 84 C-139.33 83.67 -139.66 83.34 -140 83 C-143.55581323 84.42232529 -144.3416096 85.65855911 -146 89 C-146.94962143 90.06867018 -147.9327603 91.10797742 -148.9375 92.125 C-157.91452053 102.193566 -165.19596439 115.09517034 -169 128 C-169.31582031 129.01578125 -169.63164062 130.0315625 -169.95703125 131.078125 C-177.00112485 158.73986241 -170.90528077 186.563301 -161.84838867 212.7434082 C-161.60494217 213.44727661 -161.36149567 214.15114502 -161.110672 214.87634277 C-160.4368115 216.81536095 -159.75644249 218.75211368 -159.07568359 220.6887207 C-158.1729736 223.46753497 -157.48914301 226.12483511 -157 229 C-174.4248599 208.12109982 -176.42171397 169.57863034 -175 144 C-173.3133139 127.53560871 -166.0775906 111.68515553 -157 98 C-160.84490969 99.17352655 -160.84490969 99.17352655 -163.125 102.25 C-163.41375 103.1575 -163.7025 104.065 -164 105 C-164.98482022 107.00751815 -165.98152514 109.00934459 -167 111 C-167.66 111 -168.32 111 -169 111 C-169.69335968 113.08007904 -170.38575528 115.16048279 -171.07421875 117.2421875 C-171.70716326 119.12766776 -172.35639509 121.00773784 -173.01953125 122.8828125 C-173.36371094 123.87023437 -173.70789063 124.85765625 -174.0625 125.875 C-174.38347656 126.77992188 -174.70445312 127.68484375 -175.03515625 128.6171875 C-177.7675075 138.19701009 -178.38960328 147.50219083 -178.375 157.4375 C-178.37368576 158.42435791 -178.37368576 158.42435791 -178.37234497 159.43115234 C-178.3215773 171.04763819 -177.133954 181.81604133 -174 193 C-173.76925781 193.84868652 -173.53851563 194.69737305 -173.30078125 195.57177734 C-167.72053162 215.66731918 -159.23925649 234.85844674 -149 253 C-148.07469027 254.76903301 -147.14957968 256.53817708 -146.22973633 258.31005859 C-138.80211165 272.54340866 -130.1372576 286.03375167 -121.13916016 299.31542969 C-119.41291233 301.86817507 -117.70700516 304.43436099 -116 307 C-115.36578125 307.95132812 -114.7315625 308.90265625 -114.078125 309.8828125 C-104.296875 324.5546875 -104.296875 324.5546875 -103.13842773 326.30273438 C-102.01690617 327.97479484 -100.86214252 329.62440301 -99.70703125 331.2734375 C-98 334 -98 334 -97.9375 336.75 C-99 339 -99 339 -101.3125 340.375 C-104.08135714 341.01892027 -105.43154526 341.19249684 -108 340 C-109 337 -109 337 -109 335 C-109.99 333.515 -109.99 333.515 -111 332 C-111.598125 332.185625 -112.19625 332.37125 -112.8125 332.5625 C-115 333 -115 333 -118 332 C-119.98046875 329.6640625 -119.98046875 329.6640625 -122.1875 326.625 C-122.57607178 326.09422852 -122.96464355 325.56345703 -123.36499023 325.01660156 C-124.58344195 323.3492206 -125.79177274 321.67479933 -127 320 C-127.78831101 318.91872255 -128.57735358 317.83797802 -129.3671875 316.7578125 C-131.25123735 314.17646306 -133.12853244 311.59047826 -135 309 C-134.41827275 312.9520518 -132.44842259 315.22095053 -129.9375 318.25 C-129.20402344 319.14203125 -128.47054687 320.0340625 -127.71484375 320.953125 C-127.14894531 321.62859375 -126.58304688 322.3040625 -126 323 C-126.33 323.66 -126.66 324.32 -127 325 C-140 310.53846154 -140 310.53846154 -140 307 C-140.66 307 -141.32 307 -142 307 C-142.66 305.35 -143.32 303.7 -144 302 C-144.66 302 -145.32 302 -146 302 C-147.29003906 300.55737305 -147.29003906 300.55737305 -148.765625 298.51171875 C-149.31895508 297.75213867 -149.87228516 296.99255859 -150.44238281 296.20996094 C-151.03889648 295.37754883 -151.63541016 294.54513672 -152.25 293.6875 C-153.52053051 291.93597822 -154.79137261 290.18468241 -156.0625 288.43359375 C-156.71476563 287.53108887 -157.36703125 286.62858398 -158.0390625 285.69873047 C-160.49239668 282.32234153 -162.9856027 278.97672346 -165.47998047 275.63061523 C-193.89884672 237.40822008 -222.75390627 190.62758573 -216.57421875 140.92578125 C-213.9933803 126.2799189 -208.0332165 112.45270642 -200 100 C-211.22924547 108.40773185 -217.0030398 125.43623139 -219 139 C-219.10957031 139.72574219 -219.21914063 140.45148438 -219.33203125 141.19921875 C-224.06229563 179.35668475 -207.87395265 216.4216191 -187.265625 247.69921875 C-186.84796875 248.45847656 -186.4303125 249.21773437 -186 250 C-186.33 250.66 -186.66 251.32 -187 252 C-188.41895708 249.81395715 -189.83519792 247.62622986 -191.25 245.4375 C-191.64574219 244.82841797 -192.04148437 244.21933594 -192.44921875 243.59179688 C-195.1110175 239.46819062 -197.59811753 235.28041899 -200 231 C-200.33 231.99 -200.66 232.98 -201 234 C-199.74220141 236.44863106 -198.45007936 238.73336926 -197 241.0625 C-195.58411612 243.35058686 -194.27208548 245.62367366 -193 248 C-193.33 248.66 -193.66 249.32 -194 250 C-216.20014105 217.66628534 -234.08360395 176.94975862 -226.8125 137 C-222.70329885 119.45466672 -214.25220484 104.83319347 -203 91 C-219.51864142 103.97101373 -227.00362145 124.65611701 -230.6875 144.75 C-232.21588261 160.52160781 -230.27509978 175.74392863 -225.453125 190.80078125 C-224.95257965 193.23015222 -225.21189225 194.6729521 -226 197 C-235.73865646 168.04422374 -236.31739722 139.58419736 -222.921875 111.80371094 C-221.38892753 108.80439529 -219.70307829 105.90569059 -218 103 C-219.98 103.99 -219.98 103.99 -222 105 C-221.34 103.35 -220.68 101.7 -220 100 C-221.36893239 99.94729537 -221.36893239 99.94729537 -224 101 C-224 100.01 -224 99.02 -224 98 C-225.98 98.99 -225.98 98.99 -228 100 C-224.9371455 92.76052574 -218.85469087 87.93782418 -213 83 C-211.66608367 81.85484541 -210.33270803 80.70906055 -209 79.5625 C-208.01 78.716875 -207.02 77.87125 -206 77 C-210.60980255 79.89759018 -214.4962063 83.13009681 -218.4375 86.875 C-219.57465317 87.94103047 -220.7126667 89.00614397 -221.8515625 90.0703125 C-222.39200195 90.57594727 -222.93244141 91.08158203 -223.48925781 91.60253906 C-226.25215098 94.15825989 -229.11473424 96.58442866 -232 99 C-231.01 97.02 -231.01 97.02 -230 95 C-230.33 95 -230.66 95 -231 95 C-231.474375 95.495 -231.94875 95.99 -232.4375 96.5 C-234 98 -234 98 -236 98 C-231.75864487 88.03509575 -220.57513785 81.09984032 -212 75 C-219.92290165 79.21430939 -226.80939235 84.49192529 -233 91 C-234.3324995 92.31334653 -235.66591004 93.62576908 -237 94.9375 C-240.21650476 98.14791289 -243.1621148 101.45264349 -246 105 C-246 100.05448883 -242.27498508 97.46936369 -239 94 C-238.26265625 93.20980469 -237.5253125 92.41960937 -236.765625 91.60546875 C-230.37174592 84.97129683 -223.39569043 79.4482359 -216 74 C-228.51493038 81.12272591 -239.21262693 91.15069918 -248.5625 102.0625 C-250.94775659 104.81752345 -253.36883607 107.47408263 -256 110 C-256.33 108.68 -256.66 107.36 -257 106 C-267.70985586 118.45498862 -273.45894957 135.768487 -274 152 C-274.0515625 153.03125 -274.103125 154.0625 -274.15625 155.125 C-275.17644969 191.85218867 -257.88408488 228.58191066 -238.85791016 259.00073242 C-237.85012908 260.63439642 -236.91629876 262.31332359 -236 264 C-236.33 264.66 -236.66 265.32 -237 266 C-261.53972294 230.40391838 -281.62287856 185.07263334 -275.59277344 141.02539062 C-272.80252588 126.17632751 -266.22906371 113.86347928 -257 102 C-256.2678125 101.03964844 -255.535625 100.07929687 -254.78125 99.08984375 C-250.73232433 93.87465144 -250.73232433 93.87465144 -249 92 C-248.34 92 -247.68 92 -247 92 C-247 91.34 -247 90.68 -247 90 C-245.5390625 88.4921875 -245.5390625 88.4921875 -243.625 86.875 C-242.99851562 86.33617188 -242.37203125 85.79734375 -241.7265625 85.2421875 C-240 84 -240 84 -238 84 C-238.33 83.34 -238.66 82.68 -239 82 C-243.22484691 84.65281085 -246.53381473 87.36875829 -250 91 C-250.58523438 91.55300781 -251.17046875 92.10601562 -251.7734375 92.67578125 C-258.96203806 99.53762724 -265.01666313 107.40099285 -270 116 C-270.33 115.01 -270.66 114.02 -271 113 C-269.49687987 110.53819695 -267.97345426 108.29793901 -266.25 106 C-265.79367187 105.3709375 -265.33734375 104.741875 -264.8671875 104.09375 C-262.7321751 101.18124753 -260.60264185 98.51367882 -258 96 C-258.33 95.34 -258.66 94.68 -259 94 C-259.48210937 94.5775 -259.96421875 95.155 -260.4609375 95.75 C-261.09257812 96.4925 -261.72421875 97.235 -262.375 98 C-263.00148438 98.7425 -263.62796875 99.485 -264.2734375 100.25 C-264.84320313 100.8275 -265.41296875 101.405 -266 102 C-266.66 102 -267.32 102 -268 102 C-268.27199219 102.73992187 -268.54398437 103.47984375 -268.82421875 104.2421875 C-269.93439096 106.84611302 -271.16471823 108.83810498 -272.8125 111.125 C-286.39337347 131.24848405 -288.20523026 155.94881732 -283.96875 179.28125 C-278.12967039 208.86270291 -263.52719489 234.98173287 -247.28076172 260.02148438 C-245.58167021 262.64623421 -243.9166309 265.29205413 -242.25 267.9375 C-236.78530317 276.50018798 -231.23299 284.9726644 -225 293 C-227.80662796 287.95979108 -230.82654183 283.14888731 -234.0625 278.375 C-240.56304119 268.7545854 -240.56304119 268.7545854 -242 266 C-241.67 265.34 -241.34 264.68 -241 264 C-240.52167725 264.70495605 -240.04335449 265.40991211 -239.55053711 266.13623047 C-237.74138201 268.80182523 -235.93156888 271.46697174 -234.12133789 274.13183594 C-233.34438947 275.27586805 -232.56768851 276.42006826 -231.79125977 277.56445312 C-230.66230471 279.22833 -229.53247703 280.89161071 -228.40234375 282.5546875 C-227.66467773 283.64023926 -226.92701172 284.72579102 -226.16699219 285.84423828 C-223.60211124 289.57944007 -220.9781462 293.27001663 -218.3269043 296.94433594 C-216.68655027 299.48560198 -215.9519637 302.1441089 -215 305 C-212.52338502 307.24850483 -212.52338502 307.24850483 -210 309 C-208.64560332 311.70879335 -208.93498549 314.00933268 -209 317 C-209.5775 316.360625 -210.155 315.72125 -210.75 315.0625 C-213.07057867 312.93530288 -214.01754956 312.55920946 -217 312 C-219.0625 311.4375 -219.0625 311.4375 -221 310 C-221.72002466 308.06902478 -222.43327285 306.13442598 -223.07421875 304.17578125 C-224.62865269 300.52253356 -227.26812322 297.82912806 -230 295 C-230.33 295.99 -230.66 296.98 -231 298 C-232.33918806 296.37982158 -233.6711969 294.75370657 -235 293.125 C-236.11375 291.76761719 -236.11375 291.76761719 -237.25 290.3828125 C-239 288 -239 288 -239 286 C-239.66 286 -240.32 286 -241 286 C-242.2890625 284.5390625 -242.2890625 284.5390625 -243.625 282.625 C-244.07101562 281.99851562 -244.51703125 281.37203125 -244.9765625 280.7265625 C-246 279 -246 279 -246 277 C-245.34 277 -244.68 277 -244 277 C-243.34 277.66 -242.68 278.32 -242 279 C-243.56101519 276.64483728 -245.12376949 274.29085896 -246.6875 271.9375 C-247.12255859 271.28072266 -247.55761719 270.62394531 -248.00585938 269.94726562 C-250.1787528 266.67987773 -252.38189786 263.44777972 -254.68359375 260.26953125 C-256.43327731 257.83840284 -257.98324603 255.40793615 -259.375 252.75 C-261.12705954 249.50464663 -263.01374121 246.44069717 -265.0625 243.375 C-284.72085192 212.64272931 -300.6938286 174.14493065 -292.81298828 137.05737305 C-291.04666475 130.01706594 -288.38735302 123.40361961 -285 117 C-284.28070313 115.59041016 -284.28070313 115.59041016 -283.546875 114.15234375 C-277.22957104 102.51439787 -267.80582455 90.80151459 -257 83 C-256.34 83 -255.68 83 -255 83 C-254.505 81.515 -254.505 81.515 -254 80 C-252.40625 78.68359375 -252.40625 78.68359375 -250.5 77.4375 C-247.74463406 75.68380605 -247.74463406 75.68380605 -246 73 C-246.99 73 -247.98 73 -249 73 C-249.495 74.485 -249.495 74.485 -250 76 C-251.45522837 77.10334938 -252.96713422 78.1323309 -254.5 79.125 C-260.10376297 83.0784401 -264.90487743 87.59132139 -269.75 92.4375 C-270.45833984 93.14084473 -271.16667969 93.84418945 -271.89648438 94.56884766 C-278.91785354 101.6805291 -284.84999695 108.8699933 -289 118 C-289.66 118 -290.32 118 -291 118 C-291.1134375 118.81726563 -291.226875 119.63453125 -291.34375 120.4765625 C-292.24079987 125.29286595 -293.71432786 129.87880736 -295.18359375 134.546875 C-303.34510574 161.30118058 -295.07545779 190.98813226 -282.90869141 215.18847656 C-281.95781662 217.08409475 -281.03025437 218.98996876 -280.10546875 220.8984375 C-277.68074323 225.85916062 -275.35646299 230.59632056 -272 235 C-271.08000296 236.67444888 -270.18588709 238.36327412 -269.3125 240.0625 C-266.64873363 245.01697456 -263.60195947 249.4447673 -260.234375 253.94140625 C-255.94428984 259.81402283 -251.99933497 265.92723932 -248 272 C-248.33 272.66 -248.66 273.32 -249 274 C-249.61875 273.195625 -250.2375 272.39125 -250.875 271.5625 C-252.74164041 268.96125481 -252.74164041 268.96125481 -255 268 C-253.68 269.98 -252.36 271.96 -251 274 C-251.33 274.66 -251.66 275.32 -252 276 C-256 271.25 -256 271.25 -256 269 C-256.66 269 -257.32 269 -258 269 C-259.4453125 266.98046875 -259.4453125 266.98046875 -261.125 264.1875 C-263.56076357 260.23693305 -266.08613662 256.45918829 -268.875 252.75 C-273.25675653 246.78711059 -277.06818542 240.55220075 -280.75976562 234.14990234 C-281.6147736 232.66777632 -282.47582402 231.18912522 -283.34179688 229.71337891 C-299.55817996 201.98290896 -312.68540699 167.70329277 -304.3125 135.1875 C-301.32959344 125.07701671 -297.02869856 116.59051195 -291 108 C-289.99816916 106.45952245 -288.99816492 104.91785544 -288 103.375 C-285.32390253 99.36789615 -282.53126765 95.30790433 -279 92 C-278.34 92 -277.68 92 -277 92 C-276.505 90.515 -276.505 90.515 -276 89 C-274.22265625 87.17578125 -274.22265625 87.17578125 -272.0625 85.3125 C-270.99708984 84.37857422 -270.99708984 84.37857422 -269.91015625 83.42578125 C-268 82 -268 82 -266 82 C-266 81.34 -266 80.68 -266 80 C-264.25 78.4921875 -264.25 78.4921875 -262 76.875 C-261.2575 76.33617188 -260.515 75.79734375 -259.75 75.2421875 C-259.1725 74.83226563 -258.595 74.42234375 -258 74 C-258.598125 74.350625 -259.19625 74.70125 -259.8125 75.0625 C-262 76 -262 76 -265 75 C-263.72992786 74.0406581 -262.45891081 73.08256706 -261.1875 72.125 C-260.47980469 71.59132813 -259.77210938 71.05765625 -259.04296875 70.5078125 C-257.39543703 69.29185219 -255.70375789 68.13583859 -254 67 C-253.566875 66.01 -253.566875 66.01 -253.125 65 C-251.59814752 62.28559559 -249.89486068 61.91416653 -247 61 C-247.99 62.32 -248.98 63.64 -250 65 C-249.01257813 64.33871094 -248.02515625 63.67742187 -247.0078125 62.99609375 C-245.71381912 62.14280826 -244.41953307 61.28996649 -243.125 60.4375 C-242.47402344 59.99986328 -241.82304687 59.56222656 -241.15234375 59.11132812 C-239.47374503 58.01245164 -237.73976613 56.9992182 -236 56 C-235.34 56.33 -234.68 56.66 -234 57 C-234.99 57.99 -234.99 57.99 -236 59 C-235.67 59.66 -235.34 60.32 -235 61 C-235.66 61 -236.32 61 -237 61 C-237 61.99 -237 62.98 -237 64 C-236.22914063 63.4946875 -235.45828125 62.989375 -234.6640625 62.46875 C-233.66117187 61.8190625 -232.65828125 61.169375 -231.625 60.5 C-230.62726563 59.8503125 -229.62953125 59.200625 -228.6015625 58.53125 C-226 57 -226 57 -224 57 C-224 59 -224 61 -224 63 C-225.68066406 64.24926758 -225.68066406 64.24926758 -228.015625 65.64453125 C-228.85480469 66.15693359 -229.69398438 66.66933594 -230.55859375 67.19726562 C-232.33620729 68.26409175 -234.11483531 69.32922952 -235.89453125 70.39257812 C-240.4083088 73.15252913 -244.02871897 75.48465439 -247 80 C-246.05253906 79.29037109 -246.05253906 79.29037109 -245.0859375 78.56640625 C-235.24341891 71.29088458 -225.15179346 64.12982499 -214 59 C-214.33 60.32 -214.66 61.64 -215 63 C-214.21625 62.505 -213.4325 62.01 -212.625 61.5 C-210 60 -210 60 -208 60 C-208 59.34 -208 58.68 -208 58 C-208.66 57.67 -209.32 57.34 -210 57 C-206.04 54.525 -206.04 54.525 -202 52 C-201.34 52.66 -200.68 53.32 -200 54 C-200.99 55.65 -201.98 57.3 -203 59 C-202.37351562 58.71125 -201.74703125 58.4225 -201.1015625 58.125 C-200.28429687 57.75375 -199.46703125 57.3825 -198.625 57 C-197.81289063 56.62875 -197.00078125 56.2575 -196.1640625 55.875 C-194 55 -194 55 -192 55 C-191.7525 54.21625 -191.505 53.4325 -191.25 52.625 C-189.84610901 49.67682892 -188.99324263 49.0975223 -186 48 C-186 48.99 -186 49.98 -186 51 C-185.67 51.66 -185.34 52.32 -185 53 C-188.96 54.98 -192.92 56.96 -197 59 C-192.24595931 57.18618434 -192.24595931 57.18618434 -188.8125 55.375 C-186 54 -186 54 -184 54 C-183.979375 53.4225 -183.95875 52.845 -183.9375 52.25 C-182.38257748 48.51818596 -179.60461984 47.67801268 -176 46 C-175.01 46.33 -174.02 46.66 -173 47 C-173.33 47.99 -173.66 48.98 -174 50 C-177.465 50.495 -177.465 50.495 -181 51 C-181.33 52.32 -181.66 53.64 -182 55 C-177.63008608 56.51266251 -173.7917867 55.80158879 -169.625 53.9375 C-169.08875 53.628125 -168.5525 53.31875 -168 53 C-168.33 54.32 -168.66 55.64 -169 57 C-166.87635519 57.22609337 -166.87635519 57.22609337 -165.375 55.5 C-164.92125 55.005 -164.4675 54.51 -164 54 C-163.01 54.33 -162.02 54.66 -161 55 C-160.67 55.99 -160.34 56.98 -160 58 C-159.566875 56.865625 -159.13375 55.73125 -158.6875 54.5625 C-158.130625 53.386875 -157.57375 52.21125 -157 51 C-156.01 50.67 -155.02 50.34 -154 50 C-153.67 50.66 -153.34 51.32 -153 52 C-151.02 51.01 -151.02 51.01 -149 50 C-149 49.34 -149 48.68 -149 48 C-146 47 -146 47 -143 47 C-142.01 44.03 -142.01 44.03 -141 41 C-137.95613276 40.91773332 -135.92824652 41.02391783 -133 42 C-132.67 41.01 -132.34 40.02 -132 39 C-127.66666667 36 -127.66666667 36 -125 36 C-124.67 36.66 -124.34 37.32 -124 38 C-123.01 37.34 -122.02 36.68 -121 36 C-121.66 36 -122.32 36 -123 36 C-121.93344655 33.09121786 -121.32878952 32.16439476 -118.5 30.75 C-116 30 -116 30 -114 30 C-113.01 29.505 -113.01 29.505 -112 29 C-112 29.66 -112 30.32 -112 31 C-109.00007271 29.70855022 -109.00007271 29.70855022 -106 28 C-105.67 27.01 -105.34 26.02 -105 25 C-104.34 25 -103.68 25 -103 25 C-102.67 24.01 -102.34 23.02 -102 22 C-101.4225 22.185625 -100.845 22.37125 -100.25 22.5625 C-97.79307475 23.04023546 -96.35602466 22.75729364 -94 22 C-96.63768976 25.0002131 -99.7396773 26.74137929 -103.1796875 28.73046875 C-103.7882962 29.08458328 -104.39690491 29.43869781 -105.0239563 29.80354309 C-106.97178092 30.93594545 -108.9231529 32.06204757 -110.875 33.1875 C-126.82498089 41.43414972 -126.82498089 41.43414972 -141 52 C-140.16452637 51.49662109 -139.32905273 50.99324219 -138.46826172 50.47460938 C-135.29701647 48.56449085 -132.12450818 46.65647824 -128.95166016 44.74902344 C-127.5919526 43.93121673 -126.23256504 43.11287769 -124.87353516 42.29394531 C-120.91756531 39.9104076 -116.95596595 37.53675601 -112.98474121 35.17871094 C-111.64488326 34.38298744 -110.30612151 33.58541563 -108.96838379 32.78613281 C-107.02813087 31.63004732 -105.08161937 30.48534241 -103.1328125 29.34375 C-101.9998877 28.67537109 -100.86696289 28.00699219 -99.69970703 27.31835938 C-98.36335205 26.66577148 -98.36335205 26.66577148 -97 26 C-96.34 26.33 -95.68 26.66 -95 27 C-103.51914361 33.12780505 -112.80257837 37.98701101 -122 43 C-122 43.33 -122 43.66 -122 44 C-120.85144531 43.35933594 -119.70289063 42.71867187 -118.51953125 42.05859375 C-114.47480222 39.80439082 -110.42492361 37.55959074 -106.37353516 35.31738281 C-104.23861423 34.13243801 -102.10899138 32.93856961 -99.98046875 31.7421875 C-98.83191406 31.10539062 -97.68335938 30.46859375 -96.5 29.8125 C-95.4790625 29.24144531 -94.458125 28.67039062 -93.40625 28.08203125 C-92.6121875 27.72496094 -91.818125 27.36789063 -91 27 C-90.34 27.33 -89.68 27.66 -89 28 C-90.32 29.32 -91.64 30.64 -93 32 C-92.01 32.33 -91.02 32.66 -90 33 C-93.62323949 35.61678408 -97.28818828 37.67650244 -101.3125 39.625 C-120.98738318 48.30858714 -120.98738318 48.30858714 -136 62 C-134.98164063 61.32195312 -133.96328125 60.64390625 -132.9140625 59.9453125 C-125.10491006 54.7919985 -117.21885741 49.83805468 -109.0625 45.25 C-108.28793457 44.8080127 -107.51336914 44.36602539 -106.71533203 43.91064453 C-104.84509915 42.87479102 -102.92606675 41.92791724 -101 41 C-100.34 41.33 -99.68 41.66 -99 42 C-101.97 43.98 -104.94 45.96 -108 48 C-104.09526529 46.43810612 -100.54446526 44.7870027 -96.8359375 42.83984375 C-95.62799391 42.20869868 -94.41998349 41.57768152 -93.21191406 40.94677734 C-92.27176453 40.45428497 -92.27176453 40.45428497 -91.31262207 39.95184326 C-81.32646625 34.72410044 -71.32576912 29.57556297 -61.07568359 24.87866211 C-56.51421017 22.7774003 -52.18731824 20.43672245 -47.87402344 17.85986328 C-47.2555957 17.5761084 -46.63716797 17.29235352 -46 17 C-45.34 17.33 -44.68 17.66 -44 18 C-46.97 19.98 -49.94 21.96 -53 24 C-45.11985177 21.15797933 -37.87653071 17.40193839 -30.5144043 13.44189453 C-29.71687744 13.01376465 -28.91935059 12.58563477 -28.09765625 12.14453125 C-27.38101807 11.75628174 -26.66437988 11.36803223 -25.92602539 10.96801758 C-24 10 -24 10 -21 9 C-21 9.66 -21 10.32 -21 11 C-27.27 14.3 -33.54 17.6 -40 21 C-40 21.66 -40 22.32 -40 23 C-33.74475847 21.33864812 -28.53472759 19.34389792 -23 16 C-22.34 16 -21.68 16 -21 16 C-20.67 15.34 -20.34 14.68 -20 14 C-18 13.33333333 -16 12.66666667 -14 12 C-10.42355113 10.40469604 -7.53304801 9.09274842 -5.75 5.4375 C-5.37875 4.2309375 -5.37875 4.2309375 -5 3 C-2.51724138 0 -2.51724138 0 0 0 Z M-19 7 C-18.67 7.66 -18.34 8.32 -18 9 C-18.99 8.67 -19.98 8.34 -21 8 C-20.34 7.67 -19.68 7.34 -19 7 Z M-266 76 C-266 76.99 -266 77.98 -266 79 C-268.1417924 81.03188073 -270.27696951 82.8936177 -272.5625 84.75 C-273.85965884 85.83404261 -275.15525067 86.91996323 -276.44921875 88.0078125 C-277.06974121 88.52762695 -277.69026367 89.04744141 -278.32958984 89.58300781 C-284.74494715 95.02509109 -289.86059464 101.36549489 -295 108 C-295 100.72973301 -286.51428007 94.30602646 -281.625 89.375 C-276.72286909 84.4933476 -271.64942762 80.01445115 -266 76 Z " fill="#0B0B0B" transform="translate(574,27)"/>
<path d="M0 0 C-0.20625 0.61875 -0.4125 1.2375 -0.625 1.875 C-0.810625 2.926875 -0.810625 2.926875 -1 4 C-0.01 4.99 -0.01 4.99 1 6 C1.33 6.99 1.66 7.98 2 9 C1.3915625 9.32871094 0.783125 9.65742187 0.15625 9.99609375 C-7.62245588 14.21718562 -15.34189785 18.53885904 -23.04492188 22.89599609 C-24.8037019 23.88915334 -26.56571502 24.87657989 -28.328125 25.86328125 C-51.82061422 39.11327215 -75.53238626 53.05081159 -95.29296875 71.6015625 C-97 73 -97 73 -99 73 C-99.268125 73.639375 -99.53625 74.27875 -99.8125 74.9375 C-101 77 -101 77 -104 78 C-104.69840249 79.31698754 -105.36030213 80.65351983 -106 82 C-107.19143987 83.4078163 -108.42494654 84.78059141 -109.6875 86.125 C-113.92941308 90.78567598 -117.503326 95.7659161 -121 101 C-121.33 100.34 -121.66 99.68 -122 99 C-121.22265625 97.2734375 -121.22265625 97.2734375 -120.0625 95.375 C-119.381875 94.26125 -118.70125 93.1475 -118 92 C-119.98264795 92.65589738 -119.98264795 92.65589738 -122 94 C-122.69080451 95.65680758 -123.35431174 97.32509436 -124 99 C-124.8886127 100.49618825 -125.80706587 101.97493819 -126.75 103.4375 C-132.34242488 112.61235843 -136.27428065 122.62313862 -139 133 C-139.33 133 -139.66 133 -140 133 C-138.97841992 115.63313872 -128.37030742 100.3060971 -118 87 C-117.01 85.515 -117.01 85.515 -116 84 C-117.65 84.99 -119.3 85.98 -121 87 C-120 85 -119 83 -118 81 C-119.485 81.495 -119.485 81.495 -121 82 C-121 81.34 -121 80.68 -121 80 C-120.34 80 -119.68 80 -119 80 C-119.33 79.34 -119.66 78.68 -120 78 C-123.63 81.63 -127.26 85.26 -131 89 C-131 86 -131 86 -128.8828125 83.51953125 C-127.97273438 82.62621094 -127.06265625 81.73289062 -126.125 80.8125 C-125.22007812 79.91144531 -124.31515625 79.01039062 -123.3828125 78.08203125 C-121 76 -121 76 -119 76 C-119 75.34 -119 74.68 -119 74 C-118.67 73.67 -118.34 73.34 -118 73 C-133.82736729 85.12308984 -144.88650546 99.32702275 -154 117 C-154.33 116.01 -154.66 115.02 -155 114 C-154.33333333 112.66666667 -153.66666667 111.33333333 -153 110 C-153.33 109.01 -153.66 108.02 -154 107 C-165.39495073 130.14199263 -170.14091061 153.68329835 -165.4453125 179.34375 C-164.89385478 182.6331469 -164.84541183 185.67635429 -165 189 C-170.66169244 183.33830756 -169.28837988 169.6277978 -169.38061523 162.01611328 C-169.33275938 129.91939808 -160.14685247 108.10119216 -139 84 C-139.33 83.67 -139.66 83.34 -140 83 C-143.55581323 84.42232529 -144.3416096 85.65855911 -146 89 C-146.94962143 90.06867018 -147.9327603 91.10797742 -148.9375 92.125 C-157.91452053 102.193566 -165.19596439 115.09517034 -169 128 C-169.31582031 129.01578125 -169.63164062 130.0315625 -169.95703125 131.078125 C-177.00112485 158.73986241 -170.90528077 186.563301 -161.84838867 212.7434082 C-161.60494217 213.44727661 -161.36149567 214.15114502 -161.110672 214.87634277 C-160.4368115 216.81536095 -159.75644249 218.75211368 -159.07568359 220.6887207 C-158.1729736 223.46753497 -157.48914301 226.12483511 -157 229 C-174.4248599 208.12109982 -176.42171397 169.57863034 -175 144 C-173.3133139 127.53560871 -166.0775906 111.68515553 -157 98 C-160.84490969 99.17352655 -160.84490969 99.17352655 -163.125 102.25 C-163.558125 103.61125 -163.558125 103.61125 -164 105 C-164.98482022 107.00751815 -165.98152514 109.00934459 -167 111 C-167.66 111 -168.32 111 -169 111 C-169.69335968 113.08007904 -170.38575528 115.16048279 -171.07421875 117.2421875 C-171.70716326 119.12766776 -172.35639509 121.00773784 -173.01953125 122.8828125 C-173.36371094 123.87023437 -173.70789063 124.85765625 -174.0625 125.875 C-174.54396484 127.23238281 -174.54396484 127.23238281 -175.03515625 128.6171875 C-177.7675075 138.19701009 -178.38960328 147.50219083 -178.375 157.4375 C-178.37412384 158.09540527 -178.37324768 158.75331055 -178.37234497 159.43115234 C-178.3215773 171.04763819 -177.133954 181.81604133 -174 193 C-173.65388672 194.27302979 -173.65388672 194.27302979 -173.30078125 195.57177734 C-167.72053162 215.66731918 -159.23925649 234.85844674 -149 253 C-148.07469027 254.76903301 -147.14957968 256.53817708 -146.22973633 258.31005859 C-138.80211165 272.54340866 -130.1372576 286.03375167 -121.13916016 299.31542969 C-119.41291233 301.86817507 -117.70700516 304.43436099 -116 307 C-115.36578125 307.95132812 -114.7315625 308.90265625 -114.078125 309.8828125 C-104.296875 324.5546875 -104.296875 324.5546875 -103.13842773 326.30273438 C-102.01690617 327.97479484 -100.86214252 329.62440301 -99.70703125 331.2734375 C-98 334 -98 334 -97.9375 336.75 C-99 339 -99 339 -101.3125 340.375 C-104.08135714 341.01892027 -105.43154526 341.19249684 -108 340 C-109 337 -109 337 -109 335 C-109.99 333.515 -109.99 333.515 -111 332 C-111.598125 332.185625 -112.19625 332.37125 -112.8125 332.5625 C-115 333 -115 333 -118 332 C-119.4877802 330.22389031 -120.89347315 328.37826794 -122.25 326.5 C-123.04485892 325.41093686 -123.84044049 324.32240081 -124.63671875 323.234375 C-125.03165527 322.69103516 -125.4265918 322.14769531 -125.83349609 321.58789062 C-128.47250183 317.99557307 -131.24711543 314.50528068 -134 311 C-133.67 310.34 -133.34 309.68 -133 309 C-132.30132812 309.84304688 -131.60265625 310.68609375 -130.8828125 311.5546875 C-129.96359391 312.66150172 -129.0443202 313.76827017 -128.125 314.875 C-127.66480469 315.43058594 -127.20460938 315.98617188 -126.73046875 316.55859375 C-124.88183857 318.78230832 -123.04599054 320.95400946 -121 323 C-121.53625 322.30519531 -122.0725 321.61039062 -122.625 320.89453125 C-124.85186111 318.00473945 -127.07468825 315.1119084 -129.29589844 312.21777344 C-130.5008465 310.64961467 -131.70738244 309.0826754 -132.91503906 307.51660156 C-147.51757411 288.5733418 -147.51757411 288.5733418 -153.359375 279.53125 C-154.9504807 277.07640121 -156.61382532 274.69381965 -158.3125 272.3125 C-165.93710154 261.44485528 -172.98316423 250.24314206 -179.625 238.75 C-180.14602295 237.85692139 -180.6670459 236.96384277 -181.20385742 236.04370117 C-181.6857251 235.19912354 -182.16759277 234.3545459 -182.6640625 233.484375 C-183.09154785 232.73897461 -183.5190332 231.99357422 -183.95947266 231.22558594 C-185.0822438 228.82408858 -185.58374841 226.61004099 -186 224 C-183.64283596 226.15454249 -182.21033856 228.19719874 -180.8125 231.0625 C-180.29623047 232.10083984 -180.29623047 232.10083984 -179.76953125 233.16015625 C-179 235 -179 235 -179 237 C-178.34 236.67 -177.68 236.34 -177 236 C-178.21361871 232.01589816 -179.74436115 228.36830407 -181.61425781 224.64916992 C-195.17421503 197.49322662 -204.14854794 165.25367612 -197 135 C-196.67 135 -196.34 135 -196 135 C-196.01047363 135.99741211 -196.02094727 136.99482422 -196.03173828 138.02246094 C-196.06837717 141.77974756 -196.0910574 145.53701895 -196.10986328 149.29443359 C-196.11982216 150.91002064 -196.13339418 152.52559015 -196.15087891 154.14111328 C-196.25099618 163.64047588 -196.05666829 172.67198008 -194 182 C-193.8335498 182.7847168 -193.66709961 183.56943359 -193.49560547 184.37792969 C-186.9200432 213.72879057 -172.24631455 239.83283832 -156.27001953 264.99658203 C-154.98492798 267.02377566 -153.70898361 269.05653578 -152.43359375 271.08984375 C-151.62287432 272.37269835 -150.81169588 273.65526301 -150 274.9375 C-149.43937866 275.8337207 -149.43937866 275.8337207 -148.86743164 276.74804688 C-146.94610982 279.90352914 -146.94610982 279.90352914 -144 282 C-145.85156804 278.89427643 -147.70631872 275.79046853 -149.5625 272.6875 C-150.11244629 271.76775391 -150.66239258 270.84800781 -151.22900391 269.90039062 C-154.03871981 265.21615145 -156.88368187 260.57138233 -159.875 256 C-162.72122402 251.57635062 -165.10733598 247.02374476 -167.40234375 242.29296875 C-168.56013508 239.90661646 -169.7364497 237.5380141 -170.94140625 235.17578125 C-187.81224586 202.05447198 -200.75117463 163.97385351 -189 127 C-181.46051984 104.23573864 -165.96995879 84.56072512 -147 70 C-145.35177835 69.28895316 -143.68515993 68.61843209 -142 68 C-140.30107809 66.9461375 -138.63423453 65.83912464 -137 64.6875 C-136.175 64.11386719 -135.35 63.54023437 -134.5 62.94921875 C-131.92554112 61.04129764 -131.92554112 61.04129764 -129.703125 58.58203125 C-126.35294145 55.38192818 -122.76370061 53.27179778 -118.75 51 C-117.99581787 50.56647217 -117.24163574 50.13294434 -116.46459961 49.6862793 C-114.98018525 48.83472874 -113.49383779 47.98653712 -112.00537109 47.14208984 C-110.31393017 46.17878808 -108.63407968 45.1951766 -106.95703125 44.20703125 C-105.00827455 43.07211095 -103.00996471 42.02261362 -101 41 C-100.34 41.33 -99.68 41.66 -99 42 C-101.97 43.98 -104.94 45.96 -108 48 C-104.09526529 46.43810612 -100.54446526 44.7870027 -96.8359375 42.83984375 C-95.62799391 42.20869868 -94.41998349 41.57768152 -93.21191406 40.94677734 C-92.27176453 40.45428497 -92.27176453 40.45428497 -91.31262207 39.95184326 C-81.32646625 34.72410044 -71.32576912 29.57556297 -61.07568359 24.87866211 C-56.51421017 22.7774003 -52.18731824 20.43672245 -47.87402344 17.85986328 C-47.2555957 17.5761084 -46.63716797 17.29235352 -46 17 C-45.34 17.33 -44.68 17.66 -44 18 C-46.97 19.98 -49.94 21.96 -53 24 C-45.11985177 21.15797933 -37.87653071 17.40193839 -30.5144043 13.44189453 C-29.71687744 13.01376465 -28.91935059 12.58563477 -28.09765625 12.14453125 C-27.02269897 11.56215698 -27.02269897 11.56215698 -25.92602539 10.96801758 C-24 10 -24 10 -21 9 C-21 9.66 -21 10.32 -21 11 C-27.27 14.3 -33.54 17.6 -40 21 C-40 21.66 -40 22.32 -40 23 C-33.74475847 21.33864812 -28.53472759 19.34389792 -23 16 C-22.34 16 -21.68 16 -21 16 C-20.67 15.34 -20.34 14.68 -20 14 C-18 13.33333333 -16 12.66666667 -14 12 C-10.42355113 10.40469604 -7.53304801 9.09274842 -5.75 5.4375 C-5.37875 4.2309375 -5.37875 4.2309375 -5 3 C-2.51724138 0 -2.51724138 0 0 0 Z M-19 7 C-18.67 7.66 -18.34 8.32 -18 9 C-18.99 8.67 -19.98 8.34 -21 8 C-20.34 7.67 -19.68 7.34 -19 7 Z " fill="#0D0D0D" transform="translate(574,27)"/>
<path d="M0 0 C0.99 0.495 0.99 0.495 2 1 C-0.97613298 5.00238573 -4.15096593 8.02177427 -8.0625 11.125 C-29.81532573 28.67888886 -43.20601195 49.68103485 -49 77 C-49.1743457 77.79543213 -49.34869141 78.59086426 -49.52832031 79.41040039 C-53.68670228 102.24060612 -47.46357876 126.867015 -39 148 C-38.4704961 149.38248416 -37.9418633 150.76530224 -37.4140625 152.1484375 C-28.98315451 173.82791519 -16.92977914 195.06183998 -3.77880859 214.23901367 C-2 217 -2 217 -2 219 C-6.29629382 217.56790206 -7.53557703 214.33852684 -9.75 210.625 C-10.65059837 209.14686523 -11.55164096 207.66900103 -12.453125 206.19140625 C-12.89076172 205.46840332 -13.32839844 204.74540039 -13.77929688 204.00048828 C-15.30962067 201.49259364 -16.90039012 199.02666093 -18.5 196.5625 C-27.41668011 182.5088098 -35.1785699 168.19065753 -42 153 C-42.30421875 152.32759277 -42.6084375 151.65518555 -42.921875 150.96240234 C-46.45478698 143.04043049 -48.99612267 134.96881308 -51.3125 126.625 C-51.56741211 125.70920166 -51.82232422 124.79340332 -52.08496094 123.84985352 C-55.05816023 112.69427186 -55.12960646 101.90763942 -55.0625 90.4375 C-55.0574746 88.93685045 -55.05291353 87.43619928 -55.04882812 85.93554688 C-55.03790576 82.29033023 -55.02069856 78.64517578 -55 75 C-58.95314574 106.72158412 -51.59139859 136.20745815 -37.06201172 164.48999023 C-36.44156982 165.71117554 -36.44156982 165.71117554 -35.80859375 166.95703125 C-35.43532959 167.66835205 -35.06206543 168.37967285 -34.67749023 169.11254883 C-34 171 -34 171 -35 174 C-35.66 174 -36.32 174 -37 174 C-38.98 170.37 -40.96 166.74 -43 163 C-32.4277694 185.87446256 -17.81944713 207.59741832 -2.328125 227.44921875 C-1.90523193 227.99513672 -1.48233887 228.54105469 -1.04663086 229.10351562 C0.11999773 230.60086208 1.29984618 232.0878813 2.48046875 233.57421875 C2.98191406 234.37472656 3.48335938 235.17523438 4 236 C3.67 236.99 3.34 237.98 3 239 C-7.13852233 226.51331854 -16.45115152 213.60705163 -25.44824219 200.28515625 C-26.82861067 198.25239208 -28.22594129 196.23320762 -29.6328125 194.21875 C-36.9621055 183.63247876 -43.07347618 172.41994767 -49 161 C-49.6489624 159.75331543 -49.6489624 159.75331543 -50.31103516 158.48144531 C-56.00261374 147.41212076 -60.2740548 136.28855651 -63.4140625 124.23974609 C-63.92317212 122.29367458 -64.4736113 120.35850628 -65.03125 118.42578125 C-71.95075652 90.84385941 -66.3107055 64.58589458 -52.57421875 40.5 C-47.93323224 33.05251723 -41.77754723 26.57219369 -36 20 C-35.01 20.33 -34.02 20.66 -33 21 C-33.66 22.32 -34.32 23.64 -35 25 C-35.66 25 -36.32 25 -37 25 C-37.33 26.32 -37.66 27.64 -38 29 C-37.51789063 28.4225 -37.03578125 27.845 -36.5390625 27.25 C-35.90742188 26.5075 -35.27578125 25.765 -34.625 25 C-33.99851562 24.2575 -33.37203125 23.515 -32.7265625 22.75 C-32.15679687 22.1725 -31.58703125 21.595 -31 21 C-30.34 21 -29.68 21 -29 21 C-29 20.34 -29 19.68 -29 19 C-28.34 18.34 -27.68 17.68 -27 17 C-27.99 16.67 -28.98 16.34 -30 16 C-25.61367881 10.48898107 -20.90997773 5.88876535 -15 2 C-14.34 2 -13.68 2 -13 2 C-13.33 2.598125 -13.66 3.19625 -14 3.8125 C-15.20787988 6.05386471 -15.20787988 6.05386471 -15 9 C-15.94726954 10.69719127 -16.94228261 12.36935236 -18 14 C-11.87647362 9.48432691 -5.9194965 4.77926562 0 0 Z " fill="#060606" transform="translate(432,90)"/>
<path d="M0 0 C-0.20625 0.61875 -0.4125 1.2375 -0.625 1.875 C-0.810625 2.926875 -0.810625 2.926875 -1 4 C-0.01 4.99 -0.01 4.99 1 6 C1.33 6.99 1.66 7.98 2 9 C1.3915625 9.32871094 0.783125 9.65742187 0.15625 9.99609375 C-7.62245588 14.21718562 -15.34189785 18.53885904 -23.04492188 22.89599609 C-24.8037019 23.88915334 -26.56571502 24.87657989 -28.328125 25.86328125 C-51.82061422 39.11327215 -75.53238626 53.05081159 -95.29296875 71.6015625 C-97 73 -97 73 -99 73 C-99.268125 73.639375 -99.53625 74.27875 -99.8125 74.9375 C-101 77 -101 77 -104 78 C-104.69840249 79.31698754 -105.36030213 80.65351983 -106 82 C-107.19143987 83.4078163 -108.42494654 84.78059141 -109.6875 86.125 C-113.92941308 90.78567598 -117.503326 95.7659161 -121 101 C-121.33 100.34 -121.66 99.68 -122 99 C-121.22265625 97.2734375 -121.22265625 97.2734375 -120.0625 95.375 C-119.381875 94.26125 -118.70125 93.1475 -118 92 C-119.98264795 92.65589738 -119.98264795 92.65589738 -122 94 C-122.69080451 95.65680758 -123.35431174 97.32509436 -124 99 C-124.8886127 100.49618825 -125.80706587 101.97493819 -126.75 103.4375 C-132.34242488 112.61235843 -136.27428065 122.62313862 -139 133 C-139.33 133 -139.66 133 -140 133 C-138.97841992 115.63313872 -128.37030742 100.3060971 -118 87 C-117.01 85.515 -117.01 85.515 -116 84 C-117.65 84.99 -119.3 85.98 -121 87 C-120 85 -119 83 -118 81 C-118.99 81.33 -119.98 81.66 -121 82 C-121 81.34 -121 80.68 -121 80 C-120.34 80 -119.68 80 -119 80 C-119.33 79.34 -119.66 78.68 -120 78 C-123.63 81.63 -127.26 85.26 -131 89 C-131 86 -131 86 -128.8828125 83.51953125 C-127.97273438 82.62621094 -127.06265625 81.73289062 -126.125 80.8125 C-125.22007812 79.91144531 -124.31515625 79.01039062 -123.3828125 78.08203125 C-121 76 -121 76 -119 76 C-119 75.34 -119 74.68 -119 74 C-118.67 73.67 -118.34 73.34 -118 73 C-133.82736729 85.12308984 -144.88650546 99.32702275 -154 117 C-154.33 116.01 -154.66 115.02 -155 114 C-154.33333333 112.66666667 -153.66666667 111.33333333 -153 110 C-153.33 109.01 -153.66 108.02 -154 107 C-165.39495073 130.14199263 -170.14091061 153.68329835 -165.4453125 179.34375 C-164.89385478 182.6331469 -164.84541183 185.67635429 -165 189 C-170.66169244 183.33830756 -169.28837988 169.6277978 -169.38061523 162.01611328 C-169.33275938 129.91939808 -160.14685247 108.10119216 -139 84 C-139.33 83.67 -139.66 83.34 -140 83 C-143.55581323 84.42232529 -144.3416096 85.65855911 -146 89 C-146.94962143 90.06867018 -147.9327603 91.10797742 -148.9375 92.125 C-157.91452053 102.193566 -165.19596439 115.09517034 -169 128 C-169.31582031 129.01578125 -169.63164062 130.0315625 -169.95703125 131.078125 C-177.00112485 158.73986241 -170.90528077 186.563301 -161.84838867 212.7434082 C-161.60494217 213.44727661 -161.36149567 214.15114502 -161.110672 214.87634277 C-160.4368115 216.81536095 -159.75644249 218.75211368 -159.07568359 220.6887207 C-158.1729736 223.46753497 -157.48914301 226.12483511 -157 229 C-174.4248599 208.12109982 -176.42171397 169.57863034 -175 144 C-173.3133139 127.53560871 -166.0775906 111.68515553 -157 98 C-160.84490969 99.17352655 -160.84490969 99.17352655 -163.125 102.25 C-163.558125 103.61125 -163.558125 103.61125 -164 105 C-164.98482022 107.00751815 -165.98152514 109.00934459 -167 111 C-167.66 111 -168.32 111 -169 111 C-167.57109671 105.61668995 -165.07027723 101.85889795 -161.75 97.5 C-160.9624231 96.45984741 -160.9624231 96.45984741 -160.15893555 95.39868164 C-150.55963105 83.01725601 -139.18995934 72.45510214 -126 64 C-125.01 64.495 -125.01 64.495 -124 65 C-125.03060547 65.79664062 -125.03060547 65.79664062 -126.08203125 66.609375 C-126.98308594 67.31578125 -127.88414062 68.0221875 -128.8125 68.75 C-130.15248047 69.79414063 -130.15248047 69.79414063 -131.51953125 70.859375 C-133.74305633 72.77825964 -135.3600921 74.58099964 -137 77 C-136.25234375 76.38511719 -135.5046875 75.77023438 -134.734375 75.13671875 C-133.74953125 74.32847656 -132.7646875 73.52023438 -131.75 72.6875 C-130.77546875 71.88699219 -129.8009375 71.08648437 -128.796875 70.26171875 C-126.5633738 68.45557742 -124.31312737 66.70180085 -122 65 C-121.01 65.495 -121.01 65.495 -120 66 C-120.66 66.99 -121.32 67.98 -122 69 C-120.84951172 68.12601563 -120.84951172 68.12601563 -119.67578125 67.234375 C-112.39507229 61.81638125 -104.87603653 57.01158947 -97 52.5 C-96.10450439 51.98405273 -95.20900879 51.46810547 -94.28637695 50.93652344 C-89.93842942 48.48092357 -85.83542245 46.35859302 -81 45 C-79.88625 44.62875 -78.7725 44.2575 -77.625 43.875 C-76.75875 43.58625 -75.8925 43.2975 -75 43 C-75 42.34 -75 41.68 -75 41 C-74.34 40.67 -73.68 40.34 -73 40 C-73.33 39.34 -73.66 38.68 -74 38 C-70.57015811 37.05383672 -67.55824425 37 -64 37 C-62.32476605 35.67744688 -60.65893182 34.34294481 -59 33 C-56.1875 31.75 -56.1875 31.75 -54 31 C-54.495 30.01 -54.495 30.01 -55 29 C-49.375 27 -49.375 27 -46 27 C-45.4225 26.360625 -44.845 25.72125 -44.25 25.0625 C-41.71702232 22.74060379 -40.51244995 22.74691862 -37.20703125 22.48046875 C-33.01216274 21.56724959 -29.33744868 19.28408493 -25.57421875 17.27734375 C-23 16 -23 16 -21 16 C-20.67 15.34 -20.34 14.68 -20 14 C-18 13.33333333 -16 12.66666667 -14 12 C-10.42355113 10.40469604 -7.53304801 9.09274842 -5.75 5.4375 C-5.37875 4.2309375 -5.37875 4.2309375 -5 3 C-2.51724138 0 -2.51724138 0 0 0 Z " fill="#171717" transform="translate(574,27)"/>
<path d="M0 0 C0.99 0.33 1.98 0.66 3 1 C1.58356548 4.20299264 -0.14127782 6.36084202 -2.5625 8.875 C-15.29959596 22.99907555 -21.99562706 39.62095495 -26 58 C-26.1750708 58.79688232 -26.3501416 59.59376465 -26.53051758 60.41479492 C-30.67737212 83.24945051 -24.46509091 107.86323927 -16 129 C-15.4704961 130.38248416 -14.9418633 131.76530224 -14.4140625 133.1484375 C-5.98315451 154.82791519 6.07022086 176.06183998 19.22119141 195.23901367 C21 198 21 198 21 200 C16.70370618 198.56790206 15.46442297 195.33852684 13.25 191.625 C12.34940163 190.14686523 11.44835904 188.66900103 10.546875 187.19140625 C10.10923828 186.46840332 9.67160156 185.74540039 9.22070312 185.00048828 C7.69037933 182.49259364 6.09960988 180.02666093 4.5 177.5625 C-4.41668011 163.5088098 -12.1785699 149.19065753 -19 134 C-19.30421875 133.32759277 -19.6084375 132.65518555 -19.921875 131.96240234 C-23.45478698 124.04043049 -25.99612267 115.96881308 -28.3125 107.625 C-28.56741211 106.70920166 -28.82232422 105.79340332 -29.08496094 104.84985352 C-31.77741605 94.74763705 -32.18169505 85.11900382 -32.1875 74.6875 C-32.19974609 73.54087891 -32.21199219 72.39425781 -32.22460938 71.21289062 C-32.26628315 46.6670389 -22.94428588 26.34809997 -7 8 C-6.01829058 6.77286322 -5.03859749 5.54410536 -4.0625 4.3125 C-3.381875 3.549375 -2.70125 2.78625 -2 2 C-1.34 2 -0.68 2 0 2 C0 1.34 0 0.68 0 0 Z " fill="#020202" transform="translate(409,109)"/>
<path d="M0 0 C0.33 0 0.66 0 1 0 C0.98952637 0.99741211 0.97905273 1.99482422 0.96826172 3.02246094 C0.93162283 6.77974756 0.9089426 10.53701895 0.89013672 14.29443359 C0.88017784 15.91002064 0.86660582 17.52559015 0.84912109 19.14111328 C0.74900382 28.64047588 0.94333171 37.67198008 3 47 C3.1664502 47.7847168 3.33290039 48.56943359 3.50439453 49.37792969 C11.56589555 85.36146769 31.6239159 116.82605418 52 147 C51.67 147.66 51.34 148.32 51 149 C50.34 148.67 49.68 148.34 49 148 C49 148.66 49 149.32 49 150 C49.66 150 50.32 150 51 150 C52.7265625 152.30078125 52.7265625 152.30078125 54.625 155.3125 C55.25664062 156.29863281 55.88828125 157.28476562 56.5390625 158.30078125 C58 161 58 161 58 164 C51.35642618 155.52562922 45.03608474 146.92195007 39 138 C38.03320312 136.58847656 38.03320312 136.58847656 37.046875 135.1484375 C31.04701428 126.29498449 25.49071834 117.17480017 20 108 C19.58588867 107.30922363 19.17177734 106.61844727 18.74511719 105.90673828 C17.61180838 104.00595907 16.49066856 102.09867529 15.375 100.1875 C14.74335938 99.10855469 14.11171875 98.02960938 13.4609375 96.91796875 C12.10071062 94.20115196 11.40933893 91.99259944 11 89 C13.35716404 91.15454249 14.78966144 93.19719874 16.1875 96.0625 C16.70376953 97.10083984 16.70376953 97.10083984 17.23046875 98.16015625 C18 100 18 100 18 102 C18.99 101.505 18.99 101.505 20 101 C18.78638129 97.01589816 17.25563885 93.36830407 15.38574219 89.64916992 C1.82578497 62.49322662 -7.14854794 30.25367612 0 0 Z " fill="#161616" transform="translate(377,162)"/>
<path d="M0 0 C0.66 0.33 1.32 0.66 2 1 C-10.28262061 15.46966912 -10.28262061 15.46966912 -17 22 C-20.86331402 25.77307603 -24.07707154 29.46442136 -27 34 C-27 29.31356538 -24.33196998 26.39595107 -21.2109375 23.125 C-19.98121917 21.91046338 -18.74088878 20.70654094 -17.48828125 19.515625 C-15.89721278 18.05074174 -15.89721278 18.05074174 -15 16 C-14.34 16 -13.68 16 -13 16 C-12.31292445 13.50935112 -12 11.62113708 -12 9 C-11.21625 8.731875 -10.4325 8.46375 -9.625 8.1875 C-6.71885077 7.15185568 -6.71885077 7.15185568 -5 4 C-4.01 4 -3.02 4 -2 4 C-1.34 2.68 -0.68 1.36 0 0 Z M-15 8 C-14.34 8.33 -13.68 8.66 -13 9 C-15.31 11.31 -17.62 13.62 -20 16 C-17.36 14.02 -14.72 12.04 -12 10 C-13.62003852 13.24007703 -14.34040137 14.57835969 -16.79296875 16.8828125 C-17.33735596 17.40464111 -17.88174316 17.92646973 -18.44262695 18.46411133 C-19.01843506 19.01220459 -19.59424316 19.56029785 -20.1875 20.125 C-36.09380499 35.73557601 -45.93031141 55.53981881 -46.41601562 77.97094727 C-46.47424142 87.70458027 -46.28548345 96.97701763 -43.65625 106.3984375 C-42.99035494 109.03823576 -42.88174375 111.28996101 -43 114 C-45.57722849 111.42277151 -45.77103349 109.4804522 -46.5625 105.9375 C-46.81128906 104.85339844 -47.06007812 103.76929688 -47.31640625 102.65234375 C-51.70226835 79.2193091 -49.18178026 55.20005174 -35.68945312 35.04199219 C-32.94881993 31.22987758 -29.99345217 27.61662436 -27 24 C-26.34 23.01 -25.68 22.02 -25 21 C-32.9198543 28.05900057 -38.37444124 36.08601441 -44 45 C-44.495 43.515 -44.495 43.515 -45 42 C-43.62595965 39.67260566 -42.23402008 37.59351206 -40.625 35.4375 C-40.16891357 34.81415771 -39.71282715 34.19081543 -39.24291992 33.54858398 C-35.16207324 28.05261068 -30.74282548 22.93677001 -26 18 C-25.34773438 17.319375 -24.69546875 16.63875 -24.0234375 15.9375 C-21.17812652 13.03165049 -18.37675502 10.29619341 -15 8 Z " fill="#0B0B0B" transform="translate(300,102)"/>
<path d="M0 0 C0 3.45470024 -0.35534723 3.69491155 -2.5 6.1875 C-12.5614096 19.18150054 -18.45444655 35.63339651 -19 52 C-19.0515625 53.03125 -19.103125 54.0625 -19.15625 55.125 C-20.17644969 91.85218867 -2.88408488 128.58191066 16.14208984 159.00073242 C17.14987092 160.63439642 18.08370124 162.31332359 19 164 C18.67 164.66 18.34 165.32 18 166 C-6.53972294 130.40391838 -26.62287856 85.07263334 -20.59277344 41.02539062 C-17.74539823 25.87230715 -11.00148305 11.00148305 0 0 Z " fill="#141414" transform="translate(319,127)"/>
<path d="M0 0 C0.33 0.99 0.66 1.98 1 3 C0.1796875 4.62109375 0.1796875 4.62109375 -1.125 6.4375 C-14.04042959 26.09765393 -14.4970414 49.41956576 -10.2890625 71.77734375 C-6.48911762 87.55234427 0.35496475 102.82552149 8.34448242 116.89794922 C9.28283568 118.56987872 10.14942447 120.28175195 11 122 C10.67 122.66 10.34 123.32 10 124 C-7.87095374 95.35577627 -20.96102177 60.74073908 -13.11328125 26.671875 C-10.15325218 16.90897209 -6.12262434 8.16349912 0 0 Z " fill="#0F0F0F" transform="translate(277,135)"/>
<path d="M0 0 C1.3332733 3.34576129 0.67364703 5.65639374 -0.3359375 9.02270508 C-5.93112169 27.99501187 -4.23828243 49.13248272 1 68 C1.20367187 68.73412109 1.40734375 69.46824219 1.6171875 70.22460938 C5.90391605 85.10908352 12.1062248 99.82412638 19.3671875 113.4921875 C21 117 21 117 20 120 C2.2886025 84.9727449 -14.89156154 44.96025885 -2.1328125 5.3046875 C-1.47801546 3.51490892 -0.75073066 1.75170488 0 0 Z " fill="#161616" transform="translate(315,152)"/>
<path d="M0 0 C0.66 0.33 1.32 0.66 2 1 C-0.31 2.98 -2.62 4.96 -5 7 C-4.01 6.67 -3.02 6.34 -2 6 C-3 8 -4 10 -5 12 C-2.69 9.69 -0.38 7.38 2 5 C2.66 5.33 3.32 5.66 4 6 C1.03 8.97 -1.94 11.94 -5 15 C-4.01 15.33 -3.02 15.66 -2 16 C-3.051875 17.27230469 -3.051875 17.27230469 -4.125 18.5703125 C-15.80750565 32.91873577 -24.10450282 48.08797059 -29 66 C-29.33 66 -29.66 66 -30 66 C-28.97841992 48.63313872 -18.37030742 33.3060971 -8 20 C-7.34 19.01 -6.68 18.02 -6 17 C-8.475 18.485 -8.475 18.485 -11 20 C-10 18 -9 16 -8 14 C-8.99 14.33 -9.98 14.66 -11 15 C-11 14.34 -11 13.68 -11 13 C-10.34 13 -9.68 13 -9 13 C-9.33 12.34 -9.66 11.68 -10 11 C-13.63 14.63 -17.26 18.26 -21 22 C-21 19 -21 19 -18.8828125 16.51953125 C-17.97273438 15.62621094 -17.06265625 14.73289062 -16.125 13.8125 C-15.22007812 12.91144531 -14.31515625 12.01039062 -13.3828125 11.08203125 C-11 9 -11 9 -9 9 C-9 8.34 -9 7.68 -9 7 C-7.03125 5.2734375 -7.03125 5.2734375 -4.5 3.375 C-3.6646875 2.74335937 -2.829375 2.11171875 -1.96875 1.4609375 C-1.3190625 0.97882813 -0.669375 0.49671875 0 0 Z " fill="#262626" transform="translate(464,94)"/>
<path d="M0 0 C0 3.38307852 -0.8646948 4.28189217 -2.72265625 6.953125 C-14.95885641 26.56098092 -16.68707082 50.51360129 -11.59960938 72.65185547 C-8.6000295 84.39858156 -4.51564834 95.81907134 1.03125 106.6015625 C2 109 2 109 1 112 C-12.53038446 87.16951424 -21.57534484 56.39241829 -14.3125 28.1875 C-11.42875691 18.41312869 -7.38229845 7.38229845 0 0 Z " fill="#111111" transform="translate(284,134)"/>
<path d="M0 0 C2.82538955 2.68548083 5.07242088 5.37494883 7.20703125 8.6328125 C7.79419922 9.52226562 8.38136719 10.41171875 8.98632812 11.328125 C9.8902832 12.71257812 9.8902832 12.71257812 10.8125 14.125 C12.00531568 15.94088952 13.19932422 17.75599605 14.39453125 19.5703125 C14.98331055 20.46572754 15.57208984 21.36114258 16.17871094 22.28369141 C18.58049214 25.86575812 21.08484246 29.37046478 23.61157227 32.86523438 C25.28565431 35.43920543 26.03375181 38.10125542 27 41 C29.47661498 43.24850483 29.47661498 43.24850483 32 45 C33.35439668 47.70879335 33.06501451 50.00933268 33 53 C27.42857143 47.85714286 27.42857143 47.85714286 27 44 C26.34 44 25.68 44 25 44 C25 43.01 25 42.02 25 41 C23.515 40.505 23.515 40.505 22 40 C20.46606445 38.23413086 20.46606445 38.23413086 18.86328125 35.96484375 C18.28642578 35.15595703 17.70957031 34.34707031 17.11523438 33.51367188 C16.22288086 32.2384668 16.22288086 32.2384668 15.3125 30.9375 C14.70599609 30.08349609 14.09949219 29.22949219 13.47460938 28.34960938 C11.97625558 26.23775639 10.48510927 24.1211778 9 22 C9.33 21.34 9.66 20.68 10 20 C12.31 22.97 14.62 25.94 17 29 C14.19337204 23.95979108 11.17345817 19.14888731 7.9375 14.375 C0 2.62797177 0 2.62797177 0 0 Z " fill="#0B0B0B" transform="translate(332,291)"/>
<path d="M0 0 C0.66 0.33 1.32 0.66 2 1 C-2.455 3.97 -2.455 3.97 -7 7 C-6.34 7.66 -5.68 8.32 -5 9 C-5.50748779 9.31638428 -6.01497559 9.63276855 -6.5378418 9.95874023 C-16.86392899 16.40773335 -27.07595465 22.94448481 -37 30 C-37.66 29.67 -38.32 29.34 -39 29 C-38.28972656 28.44570312 -37.57945312 27.89140625 -36.84765625 27.3203125 C-35.92855469 26.59585938 -35.00945312 25.87140625 -34.0625 25.125 C-33.14597656 24.40570313 -32.22945313 23.68640625 -31.28515625 22.9453125 C-28.93990515 21.20579164 -28.93990515 21.20579164 -28 19 C-28.66 18.67 -29.32 18.34 -30 18 C-22.54313443 13.07147792 -15.01043067 8.31370436 -7.25 3.875 C-6.5590625 3.47289307 -5.868125 3.07078613 -5.15625 2.65649414 C-3.47227748 1.70652314 -1.73938738 0.84423924 0 0 Z " fill="#101010" transform="translate(473,68)"/>
<path d="M0 0 C0.66 0 1.32 0 2 0 C0.48729472 4.16383826 -1.60992855 7.83959544 -3.875 11.625 C-16.70887007 33.64816325 -18.64236043 58.50603223 -13 83 C-12.20930689 85.95739761 -11.3867185 88.88558979 -10.453125 91.80078125 C-9.95257965 94.23015222 -10.21189225 95.6729521 -11 98 C-20.66009931 69.27779632 -21.53661015 40.36858777 -7.99926758 12.79418945 C-6.25972252 9.67082843 -4.12378353 6.87273368 -2 4 C-1.29325371 2.68747118 -0.60036728 1.36447109 0 0 Z " fill="#1C1C1C" transform="translate(359,126)"/>
<path d="M0 0 C-8.55580048 4.62209911 -17.14363576 9.1406634 -25.89453125 13.38476562 C-28.62167665 14.72359608 -30.83557377 15.83557377 -33 18 C-33.33 18.99 -33.66 19.98 -34 21 C-35.62304688 22.16333008 -35.62304688 22.16333008 -37.71875 23.26953125 C-38.48268066 23.68090332 -39.24661133 24.09227539 -40.03369141 24.51611328 C-40.84757324 24.9439209 -41.66145508 25.37172852 -42.5 25.8125 C-48.88658428 29.25433409 -55.10035226 32.75639373 -61 37 C-61.66 36.67 -62.32 36.34 -63 36 C-61.29592618 34.72346071 -59.58652649 33.4540296 -57.875 32.1875 C-56.92367188 31.47980469 -55.97234375 30.77210937 -54.9921875 30.04296875 C-52 28 -52 28 -48.7578125 26.55078125 C-45.79986415 25.30328165 -45.79986415 25.30328165 -45.2734375 22.65722656 C-43.45460198 18.86194172 -40.49712327 17.697222 -36.8671875 15.93359375 C-36.1565213 15.57282242 -35.4458551 15.21205109 -34.71365356 14.84034729 C-32.44128041 13.69109556 -30.15865013 12.56414891 -27.875 11.4375 C-26.36125096 10.67657716 -24.84822124 9.91422152 -23.3359375 9.15039062 C-19.88867646 7.41320581 -16.43707074 5.68569487 -12.97064209 3.98703003 C-11.57992211 3.29046398 -10.2014608 2.56915852 -8.83258057 1.83059692 C-8.12615417 1.45474457 -7.41972778 1.07889221 -6.69189453 0.69165039 C-6.05575226 0.34429337 -5.41960999 -0.00306366 -4.76419067 -0.36094666 C-3 -1 -3 -1 0 0 Z " fill="#101010" transform="translate(513,54)"/>
<path d="M0 0 C0.66 0.33 1.32 0.66 2 1 C1.11699219 1.77601562 0.23398437 2.55203125 -0.67578125 3.3515625 C-14.110094 15.35609263 -23.62622312 28.07948593 -32 44 C-32.495 42.515 -32.495 42.515 -33 41 C-32.505 40.071875 -32.505 40.071875 -32 39.125 C-30.70791019 37.01367527 -30.70791019 37.01367527 -31.75 34.75 C-32.11810833 30.70080832 -29.98351929 28.9720973 -27.4921875 25.9296875 C-25.80825733 23.75203958 -24.97750942 21.55656309 -24 19 C-21 17 -21 17 -17 17 C-15.04645408 15.14973823 -13.35028786 13.35648687 -11.625 11.3125 C-8.00483096 7.10430916 -4.35280575 3.46041637 0 0 Z " fill="#171717" transform="translate(452,100)"/>
<path d="M0 0 C2.22317214 2.8032176 3.8831601 5.57233143 5.42578125 8.796875 C5.8854126 9.74353027 6.34504395 10.69018555 6.81860352 11.66552734 C7.31158936 12.68340332 7.8045752 13.7012793 8.3125 14.75 C16.74060421 31.87157858 26.49709184 48.21827501 36.62524414 64.38232422 C38.77448182 67.83984762 40.64853524 71.13330915 42 75 C27.89930603 61.87502369 19.09170163 39.93530949 10 23.25 C9.46020508 22.26273926 8.92041016 21.27547852 8.36425781 20.25830078 C0 4.80100496 0 4.80100496 0 0 Z " fill="#1C1C1C" transform="translate(417,256)"/>
<path d="M0 0 C0.66 0.33 1.32 0.66 2 1 C-0.73117894 4.12557301 -4.16670588 6.07807514 -7.6875 8.1875 C-8.59725586 8.73954102 -8.59725586 8.73954102 -9.52539062 9.30273438 C-11.01461388 10.20564926 -12.50699815 11.10334696 -14 12 C-8.05029517 8.81734539 -2.20767994 5.63116809 3.34375 1.78515625 C5 1 5 1 8 2 C7.410979 2.35715088 6.82195801 2.71430176 6.21508789 3.08227539 C3.49404629 4.73664949 0.77828601 6.39951366 -1.9375 8.0625 C-2.86369141 8.62388672 -3.78988281 9.18527344 -4.74414062 9.76367188 C-10.17006875 13.09538213 -15.2707501 16.61237054 -20.22485352 20.61499023 C-22 22 -22 22 -24 23 C-22.79618552 20.50638429 -21.54571278 18.31856917 -20 16 C-21.65 16.66 -23.3 17.32 -25 18 C-21.81866894 13.42179008 -18.37109139 11.11418343 -13.625 8.4375 C-12.32469725 7.68762421 -11.0252076 6.93633662 -9.7265625 6.18359375 C-8.79118652 5.64387939 -8.79118652 5.64387939 -7.83691406 5.09326172 C-5.15273215 3.49573824 -2.57945563 1.76089773 0 0 Z " fill="#020202" transform="translate(366,87)"/>
<path d="M0 0 C4.02581513 3.75312177 6.97486476 7.68969735 9.9375 12.3125 C13.45018514 17.69429027 17.05889521 22.91804908 21 28 C20.34 28.33 19.68 28.66 19 29 C19.33 30.32 19.66 31.64 20 33 C16.74483572 29.83525695 13.67991207 26.67247209 11 23 C11 22.34 11 21.68 11 21 C10.34 21 9.68 21 9 21 C7.7109375 19.5390625 7.7109375 19.5390625 6.375 17.625 C5.92898438 16.99851562 5.48296875 16.37203125 5.0234375 15.7265625 C4 14 4 14 4 12 C4.66 12 5.32 12 6 12 C6.66 12.66 7.32 13.32 8 14 C7.4225 13.15695312 6.845 12.31390625 6.25 11.4453125 C5.49975807 10.33870565 4.74977126 9.23192581 4 8.125 C3.2575 7.03445313 2.515 5.94390625 1.75 4.8203125 C0 2 0 2 0 0 Z " fill="#0B0B0B" transform="translate(324,292)"/>
<path d="M0 0 C0.66 0.33 1.32 0.66 2 1 C1.67 1.66 1.34 2.32 1 3 C1.33 3.33 1.66 3.66 2 4 C1.566875 4.8353125 1.566875 4.8353125 1.125 5.6875 C-0.03459089 7.96462122 -0.03459089 7.96462122 -0.828125 10.3125 C-2.1608782 13.36894733 -3.81733882 15.69189378 -5.875 18.3125 C-6.55304688 19.19550781 -7.23109375 20.07851562 -7.9296875 20.98828125 C-10 23 -10 23 -14 23 C-12.92598892 20.08482708 -12.22189824 18.22189824 -10 16 C-8.94048585 13.54987354 -8.03507347 11.11398877 -7.25 8.5625 C-5.4768652 4.92757366 -2.94914181 2.75680647 0 0 Z " fill="#0F0F0F" transform="translate(454,104)"/>
<path d="M0 0 C0.66 0.33 1.32 0.66 2 1 C1.3608667 1.35715088 0.7217334 1.71430176 0.06323242 2.08227539 C-2.8971997 3.73906037 -5.85484923 5.40075529 -8.8125 7.0625 C-9.81732422 7.62388672 -10.82214844 8.18527344 -11.85742188 8.76367188 C-25.42781005 16.39974239 -38.18505087 24.82601603 -50 35 C-50.66 34.67 -51.32 34.34 -52 34 C-39.73195408 19.96817751 -17.5554115 6.23836946 0 0 Z " fill="#030303" transform="translate(487,70)"/>
<path d="M0 0 C3.94213597 4.58807632 6.93866388 9.65647847 10.0625 14.8125 C15.74089136 24.09755776 21.72507414 33.10947378 28 42 C27.67 42.66 27.34 43.32 27 44 C20.85948621 36.7102839 15.49818897 29.04610291 10.33056641 21.05566406 C9.41294273 19.63797757 8.49043824 18.22344243 7.56396484 16.81152344 C6.13535121 14.63153651 4.72194629 12.44241645 3.3125 10.25 C2.86600098 9.57050293 2.41950195 8.89100586 1.95947266 8.19091797 C0.89262877 6.50896458 -0.06411874 4.75819491 -1 3 C-0.67 2.01 -0.34 1.02 0 0 Z " fill="#040404" transform="translate(423,290)"/>
<path d="M0 0 C3.34180474 3.18730349 6.02732519 6.29303717 8.5 10.1875 C17.63599871 24.18453954 27.56811521 37.89041601 38.27734375 50.73046875 C40 53 40 53 40 55 C39.34 55 38.68 55 38 55 C36.14250627 52.74644563 34.40502383 50.48258972 32.6875 48.125 C32.15842041 47.40828125 31.62934082 46.6915625 31.08422852 45.953125 C29.38182995 43.64092321 27.6900835 41.32121503 26 39 C25.45279297 38.25202148 24.90558594 37.50404297 24.34179688 36.73339844 C18.4071373 28.61656666 12.55413814 20.44212276 6.8125 12.1875 C6.12595337 11.21006836 6.12595337 11.21006836 5.42553711 10.21289062 C3.15448733 6.91993336 1.29352166 3.79384844 0 0 Z " fill="#161616" transform="translate(479,304)"/>
<path d="M0 0 C-4.06412776 4.77093259 -9.64695406 7.66856361 -15.41015625 9.95703125 C-19.43421513 11.57757985 -23.21896964 13.65504921 -27.0625 15.66015625 C-29.76419408 16.89244491 -32.07730264 17.56481896 -35 18 C-35 17.34 -35 16.68 -35 16 C-34.45698242 15.73372803 -33.91396484 15.46745605 -33.35449219 15.19311523 C-30.81739881 13.94577362 -28.28320184 12.69272662 -25.75 11.4375 C-24.83935791 10.98656982 -23.92871582 10.53563965 -22.99047852 10.07104492 C-16.86783677 7.01053873 -10.9939923 3.75514862 -5.21484375 0.08203125 C-3 -1 -3 -1 0 0 Z " fill="#080808" transform="translate(569,33)"/>
<path d="M0 0 C4.25860877 3.8593642 7.43491242 8.2468474 10.76953125 12.9140625 C13.08153282 16.11280373 15.46142743 19.25282547 17.875 22.375 C18.29048096 22.91253906 18.70596191 23.45007813 19.1340332 24.00390625 C19.98615574 25.10540258 20.83861661 26.20663725 21.69140625 27.30761719 C23.03757744 29.04859828 24.37889342 30.79321786 25.71875 32.5390625 C26.1636377 33.11865723 26.60852539 33.69825195 27.06689453 34.29541016 C27.49856934 34.8579248 27.93024414 35.42043945 28.375 36 C31.21304828 39.69778278 34.07667359 43.3692019 37 47 C36.505 47.99 36.505 47.99 36 49 C28.03380169 40.8019811 21.49062174 31.67491331 14.79296875 22.44384766 C13.0441351 20.06015692 11.26491492 17.70364297 9.46875 15.35546875 C8.91550049 14.63053223 8.36225098 13.9055957 7.79223633 13.15869141 C6.74746039 11.79394986 5.69804306 10.43274497 4.64331055 9.07568359 C2.35343641 6.07237537 0.74233181 3.70261234 0 0 Z " fill="#121212" transform="translate(391,292)"/>
<path d="M0 0 C0.66 0.33 1.32 0.66 2 1 C1.54149658 1.33733154 1.08299316 1.67466309 0.6105957 2.0222168 C-1.49200999 3.5729714 -3.58976032 5.13017019 -5.6875 6.6875 C-6.40873047 7.21794922 -7.12996094 7.74839844 -7.87304688 8.29492188 C-11.89863182 11.2911335 -15.53037843 14.35291983 -19 18 C-19.63421875 18.59941406 -20.2684375 19.19882813 -20.921875 19.81640625 C-28.05461444 26.62908687 -34.05503511 34.46720569 -39 43 C-39.495 41.515 -39.495 41.515 -40 40 C-38.62602209 37.67271142 -37.23399819 35.59339622 -35.625 33.4375 C-35.17253906 32.8192334 -34.72007812 32.2009668 -34.25390625 31.56396484 C-30.20206098 26.10836399 -25.97177424 20.65032332 -21 16 C-20.34 16 -19.68 16 -19 16 C-19 15.34 -19 14.68 -19 14 C-16.99294997 12.29073188 -14.9847099 10.69810977 -12.875 9.125 C-12.30523437 8.69058594 -11.73546875 8.25617188 -11.1484375 7.80859375 C-7.5194811 5.06213356 -3.8094588 2.48946396 0 0 Z " fill="#0F0F0F" transform="translate(343,100)"/>
<path d="M0 0 C4.09891906 3.82614927 7.15549716 7.90154078 10.25 12.5625 C14.96798043 19.5428852 19.86936905 26.31436618 25 33 C25.44859375 33.58539551 25.8971875 34.17079102 26.359375 34.77392578 C29.23213095 38.52172793 32.1129942 42.26316576 35 46 C34.505 46.99 34.505 46.99 34 48 C26.93001417 39.90849531 20.39975565 31.62518573 14.26464844 22.80566406 C12.94363061 20.91951583 11.6037892 19.04809693 10.2578125 17.1796875 C9.80672119 16.55312256 9.35562988 15.92655762 8.89086914 15.28100586 C8.03156816 14.08847109 7.17143485 12.89653544 6.31030273 11.70532227 C0 2.90949835 0 2.90949835 0 0 Z " fill="#151515" transform="translate(388,279)"/>
<path d="M0 0 C0.99 0 1.98 0 3 0 C2.34 1.32 1.68 2.64 1 4 C0.67 2.68 0.34 1.36 0 0 Z M-1 4 C-1 5.33333333 -1 6.66666667 -1 8 C-0.01 7.34 0.98 6.68 2 6 C0.47981211 9.55252464 -1.61289458 11.94252306 -4.3125 14.6875 C-5.07175781 15.47511719 -5.83101563 16.26273438 -6.61328125 17.07421875 C-9.21797447 19.17587793 -10.7513656 19.51773943 -14 20 C-14.99 20.66 -15.98 21.32 -17 22 C-16.43867066 18.4628562 -15.30442253 17.00738321 -12.5625 14.75 C-11.94503906 14.22921875 -11.32757813 13.7084375 -10.69140625 13.171875 C-9 12 -9 12 -7 12 C-6.7525 11.4225 -6.505 10.845 -6.25 10.25 C-4.83316683 7.6997003 -3.12372463 5.98214299 -1 4 Z " fill="#070707" transform="translate(273,110)"/>
<path d="M0 0 C0.33 0.66 0.66 1.32 1 2 C0.319375 2.66 -0.36125 3.32 -1.0625 4 C-2.04660958 4.99513602 -3.0252785 5.99566671 -4 7 C-4.51949219 7.53496094 -5.03898437 8.06992188 -5.57421875 8.62109375 C-16.32935773 20.27876188 -23.14907677 34.01854407 -28 49 C-28.33 49 -28.66 49 -29 49 C-28.52808435 42.93925478 -27.21040149 38.53578348 -24.375 33.1875 C-24.0138208 32.49100342 -23.6526416 31.79450684 -23.28051758 31.0769043 C-9.41610597 4.70805298 -9.41610597 4.70805298 0 0 Z " fill="#202020" transform="translate(408,109)"/>
<path d="M0 0 C-4.12751642 4.6288342 -8.71114301 7.41171712 -14.125 10.375 C-14.93582031 10.83777344 -15.74664062 11.30054687 -16.58203125 11.77734375 C-17.36191406 12.20917969 -18.14179688 12.64101562 -18.9453125 13.0859375 C-19.65187988 13.4782959 -20.35844727 13.8706543 -21.08642578 14.27490234 C-23 15 -23 15 -26 14 C-25.39671875 13.61328125 -24.7934375 13.2265625 -24.171875 12.828125 C-19.32320637 9.74439331 -19.32320637 9.74439331 -15.0625 5.9375 C-11.13846499 2.2512853 -5.31983313 -1.77327771 0 0 Z " fill="#070707" transform="translate(491,61)"/>
<path d="M0 0 C0.66 0.33 1.32 0.66 2 1 C0.96101563 1.76183594 -0.07796875 2.52367188 -1.1484375 3.30859375 C-13.67557904 12.55384992 -24.6548052 22.3764066 -35 34 C-35 29.05448883 -31.27498508 26.46936369 -28 23 C-27.26265625 22.20980469 -26.5253125 21.41960937 -25.765625 20.60546875 C-18.33115837 12.89160223 -9.60386321 4.94439729 0 0 Z " fill="#121212" transform="translate(363,98)"/>
<path d="M0 0 C0.66 0.33 1.32 0.66 2 1 C0.50067938 2.35491884 -0.99950054 3.70888678 -2.5 5.0625 C-3.41265625 5.88621094 -4.3253125 6.70992188 -5.265625 7.55859375 C-7.56811878 9.61439177 -9.8992784 11.62506437 -12.25 13.625 C-15.41960307 16.36006071 -18.04191056 19.29027091 -20.578125 22.6171875 C-22.30504982 24.29666933 -23.65469748 24.60911625 -26 25 C-21.46390311 14.40773121 -8.93112512 6.76912365 0 0 Z " fill="#040404" transform="translate(457,94)"/>
<path d="M0 0 C0.66 0.33 1.32 0.66 2 1 C1.15343637 5.65921691 -1.70131617 7.85546496 -5.125 10.875 C-5.7130542 11.40512695 -6.3011084 11.93525391 -6.90698242 12.48144531 C-10.8823164 16.05238714 -14.90263276 19.56964603 -19 23 C-16.78884856 18.27059275 -13.69340843 14.69340843 -10 11 C-10.66 10.67 -11.32 10.34 -12 10 C-8.04 6.7 -4.08 3.4 0 0 Z " fill="#131313" transform="translate(373,100)"/>
<path d="M0 0 C0.66 0.33 1.32 0.66 2 1 C-0.31 2.98 -2.62 4.96 -5 7 C-4.01 6.67 -3.02 6.34 -2 6 C-3.5294997 9.44137432 -5.45369552 12.2222133 -8 15 C-8.99 15 -9.98 15 -11 15 C-11 14.34 -11 13.68 -11 13 C-10.34 13 -9.68 13 -9 13 C-9.33 12.34 -9.66 11.68 -10 11 C-13.63 14.63 -17.26 18.26 -21 22 C-21 19 -21 19 -18.8828125 16.51953125 C-17.97273438 15.62621094 -17.06265625 14.73289062 -16.125 13.8125 C-15.22007812 12.91144531 -14.31515625 12.01039062 -13.3828125 11.08203125 C-11 9 -11 9 -9 9 C-9 8.34 -9 7.68 -9 7 C-7.03125 5.2734375 -7.03125 5.2734375 -4.5 3.375 C-3.6646875 2.74335937 -2.829375 2.11171875 -1.96875 1.4609375 C-1.3190625 0.97882813 -0.669375 0.49671875 0 0 Z " fill="#1D1D1D" transform="translate(464,94)"/>
<path d="M0 0 C3.45451322 3.25510585 5.70164247 7.05179405 8.1875 11.0625 C8.65091797 11.79533203 9.11433594 12.52816406 9.59179688 13.28320312 C10.02943359 13.98509766 10.46707031 14.68699219 10.91796875 15.41015625 C11.31781982 16.05090088 11.7176709 16.69164551 12.12963867 17.35180664 C13 19 13 19 13 21 C13.66 21 14.32 21 15 21 C16.65625 23.44921875 16.65625 23.44921875 18.5 26.6875 C19.41265625 28.27111328 19.41265625 28.27111328 20.34375 29.88671875 C21.76389787 32.55619481 22.94958999 35.16914502 24 38 C20.54202875 34.80256083 17.94643483 31.22811725 15.375 27.3125 C14.94912598 26.66837158 14.52325195 26.02424316 14.08447266 25.3605957 C10.71810503 20.21373617 7.5110519 14.97739642 4.375 9.6875 C3.93720215 8.95249268 3.4994043 8.21748535 3.04833984 7.46020508 C0 2.24684417 0 2.24684417 0 0 Z " fill="#131313" transform="translate(359,281)"/>
<path d="M0 0 C0.66 0.33 1.32 0.66 2 1 C1.15695312 1.54269531 0.31390625 2.08539063 -0.5546875 2.64453125 C-1.65039062 3.35996094 -2.74609375 4.07539062 -3.875 4.8125 C-4.96554687 5.52019531 -6.05609375 6.22789063 -7.1796875 6.95703125 C-10.16470116 8.86958736 -10.16470116 8.86958736 -12 12 C-10.35 11.34 -8.7 10.68 -7 10 C-10.70090521 13.9252025 -14.54959656 16.94580156 -19 20 C-19.66 19.67 -20.32 19.34 -21 19 C-20.34 18.236875 -19.68 17.47375 -19 16.6875 C-16.70149462 14.15722061 -16.70149462 14.15722061 -17 11 C-15.65478516 9.75732422 -15.65478516 9.75732422 -13.7890625 8.5546875 C-12.78746094 7.89919922 -12.78746094 7.89919922 -11.765625 7.23046875 C-11.05921875 6.78316406 -10.3528125 6.33585937 -9.625 5.875 C-8.92632812 5.41996094 -8.22765625 4.96492188 -7.5078125 4.49609375 C-2.49563718 1.24781859 -2.49563718 1.24781859 0 0 Z " fill="#131313" transform="translate(450,77)"/>
<path d="M0 0 C2.87609414 2.54942665 4.54564942 5.44095771 6.43359375 8.76953125 C7.08263672 9.90583984 7.73167969 11.04214844 8.40039062 12.21289062 C9.07974192 13.41258219 9.75877588 14.6124535 10.4375 15.8125 C11.76669136 18.15398308 13.09961175 20.49326597 14.43359375 22.83203125 C15.02197021 23.87077393 15.61034668 24.9095166 16.21655273 25.97973633 C18.0425495 29.07205748 19.98186 32.03087495 22 35 C21.67 35.66 21.34 36.32 21 37 C15.26468827 29.32832901 10.60185537 21.20541046 6.00732422 12.82666016 C4.30032342 9.73122147 2.53558621 6.66812679 0.77734375 3.6015625 C0 2 0 2 0 0 Z " fill="#121212" transform="translate(336,272)"/>
<path d="M0 0 C4.14676443 3.91892023 7.50650042 8.15403754 10.875 12.75 C14.78475601 18.0492482 18.74208184 23.26274978 22.98828125 28.30078125 C23.32214844 28.86152344 23.65601563 29.42226563 24 30 C23.67 30.99 23.34 31.98 23 33 C22.16094435 31.87926138 21.32892169 30.75325453 20.5 29.625 C20.0359375 28.99851562 19.571875 28.37203125 19.09375 27.7265625 C18 26 18 26 18 24 C17.34 24 16.68 24 16 24 C14.73486328 22.62646484 14.73486328 22.62646484 13.3203125 20.7109375 C12.80339844 20.01613281 12.28648437 19.32132812 11.75390625 18.60546875 C11.21636719 17.86941406 10.67882812 17.13335937 10.125 16.375 C9.59519531 15.66214844 9.06539062 14.94929688 8.51953125 14.21484375 C0 2.6933933 0 2.6933933 0 0 Z " fill="#131313" transform="translate(503,328)"/>
<path d="M0 0 C4.13571334 3.68941334 6.92704134 8.14974856 9.9375 12.75 C10.44990234 13.5234375 10.96230469 14.296875 11.49023438 15.09375 C13.00522874 17.38837933 14.50287533 19.69368563 16 22 C16.75627686 23.13405273 16.75627686 23.13405273 17.52783203 24.29101562 C18.22755127 25.36125977 18.22755127 25.36125977 18.94140625 26.453125 C19.57284546 27.40687012 19.57284546 27.40687012 20.21704102 28.37988281 C20.47541748 28.91452148 20.73379395 29.44916016 21 30 C20.67 30.66 20.34 31.32 20 32 C15.15016502 25.78312762 10.84712747 19.27991909 6.625 12.625 C5.98433594 11.62855469 5.34367187 10.63210938 4.68359375 9.60546875 C4.07902344 8.65542969 3.47445313 7.70539063 2.8515625 6.7265625 C2.02906006 5.43613037 2.02906006 5.43613037 1.18994141 4.11962891 C0 2 0 2 0 0 Z " fill="#0F0F0F" transform="translate(366,303)"/>
<path d="M0 0 C0.66 0 1.32 0 2 0 C0.4769624 4.26450527 -2.306256 5.58369385 -6 8 C-8.25958842 9.66943709 -10.4734289 11.39581817 -12.6875 13.125 C-15.74194478 15.50337584 -18.77627329 17.85084886 -22 20 C-19.33267068 13.45291893 -13.35506869 9.63401025 -7.75 5.75 C-3.69642307 3.0876775 -3.69642307 3.0876775 0 0 Z " fill="#030303" transform="translate(425,82)"/>
<path d="M0 0 C3.28793205 3.02606136 5.47465574 6.1638824 7.75 10 C11.63545563 16.47359254 15.76461778 22.74830549 20 29 C19.67 29.66 19.34 30.32 19 31 C13.91574156 24.38609361 9.36157274 17.54267697 5 10.4375 C4.50717529 9.63973145 4.01435059 8.84196289 3.5065918 8.02001953 C3.0506665 7.26962402 2.59474121 6.51922852 2.125 5.74609375 C1.51011719 4.73567017 1.51011719 4.73567017 0.8828125 3.70483398 C0 2 0 2 0 0 Z " fill="#0F0F0F" transform="translate(319,277)"/>
<path d="M0 0 C0 0.66 0 1.32 0 2 C-4.03880828 3.96426835 -8.08152615 5.92035611 -12.125 7.875 C-13.83816406 8.70837891 -13.83816406 8.70837891 -15.5859375 9.55859375 C-16.69453125 10.09355469 -17.803125 10.62851563 -18.9453125 11.1796875 C-20.46922607 11.91807861 -20.46922607 11.91807861 -22.02392578 12.67138672 C-24.97186083 13.98743779 -27.9218844 15.03282156 -31 16 C-27.9528442 12.71389708 -24.36714419 11.03793105 -20.375 9.125 C-15.03711975 6.52414049 -9.80113979 3.85961983 -4.69921875 0.8125 C-3 0 -3 0 0 0 Z " fill="#020202" transform="translate(510,56)"/>
<path d="M0 0 C0.66 0.33 1.32 0.66 2 1 C-1 4 -4 7 -7 10 C-7.55042969 10.59167969 -8.10085938 11.18335937 -8.66796875 11.79296875 C-10 13 -10 13 -12 13 C-12.25523437 13.56203125 -12.51046875 14.1240625 -12.7734375 14.703125 C-14.15692781 17.29386482 -15.79938583 19.45107845 -17.625 21.75 C-18.25664062 22.54921875 -18.88828125 23.3484375 -19.5390625 24.171875 C-20.02117187 24.77515625 -20.50328125 25.3784375 -21 26 C-21.33 25.34 -21.66 24.68 -22 24 C-15.54755132 15.03011869 -8.52630585 7.05234341 0 0 Z " fill="#0E0E0E" transform="translate(317,110)"/>
<path d="M0 0 C3.62992951 3.26036655 5.96491302 7.00078986 8.375 11.1875 C11.73940516 16.9211261 15.21877269 22.52834166 19 28 C18.67 28.66 18.34 29.32 18 30 C13.33310645 23.8834447 9.03875261 17.64446709 5.0625 11.0625 C4.67328369 10.4243335 4.28406738 9.78616699 3.88305664 9.12866211 C2.10931264 6.15033412 0.54548191 3.45471878 0 0 Z " fill="#0F0F0F" transform="translate(291,255)"/>
<path d="M0 0 C0 0.66 0 1.32 0 2 C-1 3 -2 4 -3 5 C-3.268125 5.66 -3.53625 6.32 -3.8125 7 C-5.56381539 9.94958382 -7.90076582 10.70865243 -11 12 C-11.66 12 -12.32 12 -13 12 C-12.42859372 8.57156234 -11.62014837 6.5205026 -8.93359375 4.265625 C-2.60625 0 -2.60625 0 0 0 Z " fill="#080808" transform="translate(492,41)"/>
<path d="M0 0 C3.93215285 2.86036813 6.39454665 5.72046741 9 9.8125 C11.89798631 14.29669473 14.86014218 18.6826955 18 23 C17.67 23.66 17.34 24.32 17 25 C0 3.17706237 0 3.17706237 0 0 Z " fill="#0E0E0E" transform="translate(390,319)"/>
<path d="M0 0 C4.48410364 4.15133157 7.85035049 8.79385556 11.3125 13.8125 C12.13717773 14.99489258 12.13717773 14.99489258 12.97851562 16.20117188 C14.32356086 18.13101938 15.66388807 20.06396201 17 22 C16.67 22.66 16.34 23.32 16 24 C0 4.76595745 0 4.76595745 0 0 Z " fill="#0E0E0E" transform="translate(383,319)"/>
<path d="M0 0 C0 0.99 0 1.98 0 3 C0.66 3.33 1.32 3.66 2 4 C-2.75 8 -2.75 8 -5 8 C-5 8.66 -5 9.32 -5 10 C-6.32 10.33 -7.64 10.66 -9 11 C-8.01 9.35 -7.02 7.7 -6 6 C-7.65 6.66 -9.3 7.32 -11 8 C-3.21621622 0 -3.21621622 0 0 0 Z " fill="#121212" transform="translate(425,86)"/>
<path d="M0 0 C2 1 2 1 3 3 C1 4 -1 5 -3 6 C-3 6.99 -3 7.98 -3 9 C-6 11.1875 -6 11.1875 -9 13 C-9.66 12.67 -10.32 12.34 -11 12 C-8.25 7.125 -8.25 7.125 -6 6 C-6.33 5.34 -6.66 4.68 -7 4 C-1.7265625 0.77734375 -1.7265625 0.77734375 0 0 Z " fill="#0E0E0E" transform="translate(484,77)"/>
<path d="M0 0 C-0.68707031 0.40992188 -1.37414062 0.81984375 -2.08203125 1.2421875 C-3.43361328 2.05042969 -3.43361328 2.05042969 -4.8125 2.875 C-6.15248047 3.67550781 -6.15248047 3.67550781 -7.51953125 4.4921875 C-9.37294724 5.61883092 -11.19529917 6.79686611 -13 8 C-16 8 -16 8 -18 7 C-15.54234547 4.18652343 -12.93721011 2.80685406 -9.5625 1.25 C-8.61503906 0.80140625 -7.66757812 0.3528125 -6.69140625 -0.109375 C-3.87551411 -1.04119417 -2.71771213 -1.05367562 0 0 Z " fill="#0D0D0D" transform="translate(521,58)"/>
<path d="M0 0 C3.31636282 1.39323844 4.93402481 2.87019017 6.98046875 5.80859375 C7.76647461 6.92911133 7.76647461 6.92911133 8.56835938 8.07226562 C9.10267578 8.85279297 9.63699219 9.63332031 10.1875 10.4375 C10.73341797 11.21416016 11.27933594 11.99082031 11.84179688 12.79101562 C15.85478051 18.56434152 15.85478051 18.56434152 17 22 C16.34 22 15.68 22 15 22 C13.67138672 20.47119141 13.67138672 20.47119141 12.1796875 18.3515625 C11.64472656 17.59359375 11.10976563 16.835625 10.55859375 16.0546875 C10.00300781 15.25289063 9.44742187 14.45109375 8.875 13.625 C8.03001953 12.43390625 8.03001953 12.43390625 7.16796875 11.21875 C3 5.26450893 3 5.26450893 3 3 C2.34 3 1.68 3 1 3 C0.67 2.01 0.34 1.02 0 0 Z " fill="#030303" transform="translate(425,309)"/>
<path d="M0 0 C0.99 0.33 1.98 0.66 3 1 C3.99 1 4.98 1 6 1 C6 1.99 6 2.98 6 4 C4.9171875 4.12375 4.9171875 4.12375 3.8125 4.25 C0.44686746 5.14750201 -1.41612816 6.7114278 -4 9 C-4.66 8.67 -5.32 8.34 -6 8 C-5.66354211 4.85972637 -4.94763914 3.94901705 -2.625 1.6875 C-1.75875 1.130625 -0.8925 0.57375 0 0 Z " fill="#1A1A1A" transform="translate(472,88)"/>
<path d="M0 0 C0.66 0.33 1.32 0.66 2 1 C-16.13333333 16 -16.13333333 16 -19 16 C-19 15.34 -19 14.68 -19 14 C-17.57885742 12.703125 -17.57885742 12.703125 -15.60546875 11.25 C-14.54295898 10.46109375 -14.54295898 10.46109375 -13.45898438 9.65625 C-12.70939453 9.1096875 -11.95980469 8.563125 -11.1875 8 C-10.08051758 7.18015625 -10.08051758 7.18015625 -8.95117188 6.34375 C-6.00203785 4.16592795 -3.05106242 2.03404161 0 0 Z " fill="#030303" transform="translate(416,85)"/>
<path d="M0 0 C-1.09944349 3.29833047 -1.75654658 3.83739348 -4.375 5.9375 C-10.11906815 10.78340476 -15.0037724 16.40679668 -20 22 C-20 16.49660516 -14.64166167 12.81716344 -11 9 C-9.74703125 7.68515625 -9.74703125 7.68515625 -8.46875 6.34375 C-2.28560127 0 -2.28560127 0 0 0 Z " fill="#1D1D1D" transform="translate(435,102)"/>
<path d="M0 0 C0.66 0.33 1.32 0.66 2 1 C-15.13274336 11.82209338 -15.13274336 11.82209338 -21 14 C-21.66 13.67 -22.32 13.34 -23 13 C-15.68379508 8.13213137 -8.19500874 3.26221857 0 0 Z " fill="#0F0F0F" transform="translate(483,54)"/>
<path d="M0 0 C0.66 0.33 1.32 0.66 2 1 C-3.94 6.94 -9.88 12.88 -16 19 C-16 14.68381834 -13.86729652 13.07210341 -11 10 C-10.34 10 -9.68 10 -9 10 C-8.74476563 9.40703125 -8.48953125 8.8140625 -8.2265625 8.203125 C-6.88183502 5.78775462 -5.50785633 4.48788294 -3.375 2.75 C-2.74335938 2.22921875 -2.11171875 1.7084375 -1.4609375 1.171875 C-0.73777344 0.59179688 -0.73777344 0.59179688 0 0 Z " fill="#0D0D0D" transform="translate(312,109)"/>
<path d="M0 0 C4.58759497 3.27086296 7.56926387 7.10438782 10.8125 11.625 C11.31458984 12.305625 11.81667969 12.98625 12.33398438 13.6875 C16 18.73512968 16 18.73512968 16 21 C15.34 21 14.68 21 14 21 C12.29309526 18.80243449 10.69568564 16.60441885 9.125 14.3125 C8.25396832 13.05764575 7.38159217 11.80372357 6.5078125 10.55078125 C5.87794434 9.64320068 5.87794434 9.64320068 5.23535156 8.71728516 C4.11141603 7.15488149 2.8994644 5.65675369 1.6796875 4.16796875 C0 2 0 2 0 0 Z " fill="#0D0D0D" transform="translate(403,327)"/>
<path d="M0 0 C0.66 0.33 1.32 0.66 2 1 C1.39671875 1.37511719 0.7934375 1.75023438 0.171875 2.13671875 C-4.37429962 5.04773701 -7.74947084 7.62428767 -11 12 C-11.99 12.33 -12.98 12.66 -14 13 C-14 12.34 -14 11.68 -14 11 C-14.66 10.67 -15.32 10.34 -16 10 C-13.70912072 8.51960151 -11.41734017 7.04063324 -9.125 5.5625 C-8.47402344 5.14162109 -7.82304687 4.72074219 -7.15234375 4.28710938 C-2.2265625 1.11328125 -2.2265625 1.11328125 0 0 Z " fill="#0F0F0F" transform="translate(459,76)"/>
<path d="M0 0 C0.66 0.33 1.32 0.66 2 1 C0.93344655 3.90878214 0.32878952 4.83560524 -2.5 6.25 C-5 7 -5 7 -7 7 C-9.09534605 8.26157293 -11.10109432 9.63107317 -13.125 11.00390625 C-13.74375 11.33261719 -14.3625 11.66132812 -15 12 C-15.66 11.67 -16.32 11.34 -17 11 C-5.44186047 2.72093023 -5.44186047 2.72093023 0 0 Z " fill="#191919" transform="translate(478,79)"/>
<path d="M0 0 C0.66 0 1.32 0 2 0 C3.7288446 2.21814024 5.34666947 4.43606469 6.9375 6.75 C7.82128368 8.01585609 8.70539017 9.28148687 9.58984375 10.546875 C10.00476074 11.14435547 10.41967773 11.74183594 10.84716797 12.35742188 C12.18988055 14.2705456 13.57973523 16.14381238 15 18 C14.67 18.66 14.34 19.32 14 20 C0 3.40740741 0 3.40740741 0 0 Z " fill="#0F0F0F" transform="translate(405,320)"/>
<path d="M0 0 C3.24408967 3.02636553 5.63581429 6.22967386 8.0625 9.9375 C8.73410156 10.95714844 9.40570313 11.97679687 10.09765625 13.02734375 C10.72542969 14.00832031 11.35320312 14.98929687 12 16 C12.59683594 16.90878906 13.19367188 17.81757813 13.80859375 18.75390625 C14.20175781 19.49511719 14.59492188 20.23632812 15 21 C14.67 21.66 14.34 22.32 14 23 C0 2.9912854 0 2.9912854 0 0 Z " fill="#0F0F0F" transform="translate(472,343)"/>
<path d="M0 0 C0.66 0.33 1.32 0.66 2 1 C-0.78809178 3.64962219 -3.58106444 6.29404167 -6.375 8.9375 C-7.1690625 9.69224609 -7.963125 10.44699219 -8.78125 11.22460938 C-9.92207031 12.30258789 -9.92207031 12.30258789 -11.0859375 13.40234375 C-11.7876709 14.06741943 -12.4894043 14.73249512 -13.21240234 15.41772461 C-15 17 -15 17 -17 18 C-15.43727522 14.2285078 -13.07921327 11.84402385 -10.1875 9 C-9.33542969 8.154375 -8.48335938 7.30875 -7.60546875 6.4375 C-5.16027385 4.14994135 -2.64475158 2.05122565 0 0 Z " fill="#131313" transform="translate(355,107)"/>
<path d="M0 0 C0.66 0.66 1.32 1.32 2 2 C0.2527456 3.29537826 -1.49791517 4.58616273 -3.25 5.875 C-4.22453125 6.59429687 -5.1990625 7.31359375 -6.203125 8.0546875 C-8.43902154 9.60982225 -10.52872493 10.88204223 -13 12 C-11.63433069 7.23661125 -9.57416075 5.67769998 -5.375 3.1875 C-4.37210937 2.58292969 -3.36921875 1.97835937 -2.3359375 1.35546875 C-1.17964844 0.68451172 -1.17964844 0.68451172 0 0 Z " fill="#030303" transform="translate(436,79)"/>
<path d="M0 0 C-0.99 1.98 -1.98 3.96 -3 6 C-3.78375 5.649375 -4.5675 5.29875 -5.375 4.9375 C-6.24125 4.628125 -7.1075 4.31875 -8 4 C-8.99 4.495 -8.99 4.495 -10 5 C-10.33 5.99 -10.66 6.98 -11 8 C-11.66 8 -12.32 8 -13 8 C-12.36338468 5.13523105 -11.63204884 3.43956744 -9.19140625 1.7421875 C-3.5906985 -1.1968995 -3.5906985 -1.1968995 0 0 Z " fill="#080808" transform="translate(418,66)"/>
<path d="M0 0 C0 0.66 0 1.32 0 2 C-2.44763337 3.97731849 -5.19852837 5.53815295 -7.875 7.1875 C-8.62136719 7.66380859 -9.36773437 8.14011719 -10.13671875 8.63085938 C-10.85214844 9.07623047 -11.56757813 9.52160156 -12.3046875 9.98046875 C-12.96452637 10.39192139 -13.62436523 10.80337402 -14.30419922 11.22729492 C-14.86381348 11.4822876 -15.42342773 11.73728027 -16 12 C-16.66 11.67 -17.32 11.34 -18 11 C-3.78694158 0 -3.78694158 0 0 0 Z " fill="#0B0B0B" transform="translate(350,88)"/>
<path d="M0 0 C5.10714843 4.95693818 9.83642487 10.21725677 14 16 C13.67 16.66 13.34 17.32 13 18 C0 3.53846154 0 3.53846154 0 0 Z " fill="#0E0E0E" transform="translate(434,334)"/>
<path d="M0 0 C1.32 1.32 2.64 2.64 4 4 C1.69 5.65 -0.62 7.3 -3 9 C-3.66 8.67 -4.32 8.34 -5 8 C-2.25 1.125 -2.25 1.125 0 0 Z " fill="#0E0E0E" transform="translate(419,77)"/>
<path d="M0 0 C0.66 0 1.32 0 2 0 C3.14501953 1.37695312 3.14501953 1.37695312 4.3828125 3.28125 C4.82753906 3.95800781 5.27226562 4.63476562 5.73046875 5.33203125 C6.19066406 6.04746094 6.65085937 6.76289063 7.125 7.5 C7.82689453 8.57314453 7.82689453 8.57314453 8.54296875 9.66796875 C9.70152501 11.44126915 10.85156066 13.2201309 12 15 C11.67 15.66 11.34 16.32 11 17 C9.5345138 15.10934188 8.07765297 13.21298003 6.625 11.3125 C6.2125 10.78205078 5.8 10.25160156 5.375 9.70507812 C3.00906418 6.59501734 1.25144944 3.70621566 0 0 Z " fill="#0E0E0E" transform="translate(314,284)"/>
<path d="M0 0 C0 3 0 3 -2.37109375 5.62890625 C-3.38586139 6.61441454 -4.40835389 7.59201649 -5.4375 8.5625 C-9.17489401 11.92358607 -9.17489401 11.92358607 -12 16 C-12.66 16 -13.32 16 -14 16 C-10.88847163 9.29260159 -5.73988517 4.50990977 0 0 Z " fill="#0F0F0F" transform="translate(320,113)"/>
<path d="M0 0 C0.66 0.33 1.32 0.66 2 1 C2 1.33 2 1.66 2 2 C2.66 2.33 3.32 2.66 4 3 C2.71372289 4.17260611 1.42080217 5.3379283 0.125 6.5 C-0.59429687 7.1496875 -1.31359375 7.799375 -2.0546875 8.46875 C-4 10 -4 10 -6 10 C-6 8 -6 8 -4 6 C-4.66 5.67 -5.32 5.34 -6 5 C-4.02 3.35 -2.04 1.7 0 0 Z " fill="#121212" transform="translate(363,101)"/>
<path d="M0 0 C0.66 0.33 1.32 0.66 2 1 C-4.93 6.445 -4.93 6.445 -12 12 C-12.66 11.67 -13.32 11.34 -14 11 C-9.52692892 6.95834187 -5.11723176 3.19826985 0 0 Z " fill="#0D0D0D" transform="translate(335,101)"/>
<path d="M0 0 C2.95273622 2.82179448 5.43419362 5.742885 7.8125 9.0625 C8.43769531 9.91972656 9.06289063 10.77695312 9.70703125 11.66015625 C10.13371094 12.43230469 10.56039063 13.20445312 11 14 C10.67 14.99 10.34 15.98 10 17 C8.32457538 14.73518493 6.65960984 12.46385674 5 10.1875 C4.52304687 9.54490234 4.04609375 8.90230469 3.5546875 8.24023438 C3.10351562 7.61826172 2.65234375 6.99628906 2.1875 6.35546875 C1.76855469 5.78465576 1.34960938 5.21384277 0.91796875 4.62573242 C0 3 0 3 0 0 Z " fill="#101010" transform="translate(478,343)"/>
<path d="M0 0 C4.54075781 4.14010271 7.71842138 8.82390176 11 14 C10.67 14.66 10.34 15.32 10 16 C0 2.86666667 0 2.86666667 0 0 Z " fill="#141414" transform="translate(482,329)"/>
<path d="M0 0 C0.33 0.66 0.66 1.32 1 2 C0.29875 2.680625 -0.4025 3.36125 -1.125 4.0625 C-4.27934337 7.20780513 -7.13934304 10.5888386 -10 14 C-10.33 13.01 -10.66 12.02 -11 11 C-9.54540569 9.35086118 -8.08620743 7.70578218 -6.625 6.0625 C-5.81289063 5.14597656 -5.00078125 4.22945313 -4.1640625 3.28515625 C-2 1 -2 1 0 0 Z " fill="#1A1A1A" transform="translate(408,109)"/>
<path d="M0 0 C4.20240011 3.71750779 6.99782679 8.31660979 10 13 C9.67 13.66 9.34 14.32 9 15 C6.68672026 12.17265809 4.43279531 9.30405012 2.25 6.375 C1.60804688 5.52035156 1.60804688 5.52035156 0.953125 4.6484375 C0 3 0 3 0 0 Z " fill="#0D0D0D" transform="translate(359,319)"/>
<path d="M0 0 C0.66 0.33 1.32 0.66 2 1 C-1.96 3.97 -5.92 6.94 -10 10 C-10 9.01 -10 8.02 -10 7 C-6.9544686 4.21551415 -3.67268653 1.88597417 0 0 Z " fill="#040404" transform="translate(461,88)"/>
<path d="M0 0 C1.65 1.65 3.3 3.3 5 5 C4.01 6.485 4.01 6.485 3 8 C0.9375 6.25 0.9375 6.25 -1 4 C-0.75 1.75 -0.75 1.75 0 0 Z " fill="#0A0A0A" transform="translate(436,328)"/>
<path d="M0 0 C0.66 0.33 1.32 0.66 2 1 C0.54712339 2.33927721 -0.91247259 3.67126847 -2.375 5 C-3.18710937 5.7425 -3.99921875 6.485 -4.8359375 7.25 C-7 9 -7 9 -9 9 C-7.83709195 5.51127585 -6.86032391 4.90023136 -3.9375 2.8125 C-3.20402344 2.28269531 -2.47054688 1.75289063 -1.71484375 1.20703125 C-1.14894531 0.80871094 -0.58304687 0.41039063 0 0 Z " fill="#0B0B0B" transform="translate(328,101)"/>
<path d="M0 0 C1.32 0.66 2.64 1.32 4 2 C1.36 4.31 -1.28 6.62 -4 9 C-4.66 8.67 -5.32 8.34 -6 8 C-4.4375 6.79557292 -2.875 5.59114583 -1.3125 4.38671875 C0.34370205 2.95508863 0.34370205 2.95508863 0 0 Z " fill="#1C1C1C" transform="translate(489,84)"/>
<path d="M0 0 C3.515562 2.343708 4.42274025 4.13571362 6 8 C5.67 8.99 5.34 9.98 5 11 C4.15841464 9.73461631 3.32700252 8.46246221 2.5 7.1875 C1.80390625 6.12595703 1.80390625 6.12595703 1.09375 5.04296875 C0 3 0 3 0 0 Z " fill="#1C1C1C" transform="translate(423,279)"/>
<path d="M0 0 C0.66 0 1.32 0 2 0 C0.6302836 3.99500618 -1.25722422 6.80009492 -4 10 C-4.33 9.34 -4.66 8.68 -5 8 C-4.07421875 6.0546875 -4.07421875 6.0546875 -2.6875 3.875 C-2.23761719 3.15054688 -1.78773438 2.42609375 -1.32421875 1.6796875 C-0.88722656 1.12539062 -0.45023437 0.57109375 0 0 Z " fill="#161616" transform="translate(359,126)"/>
<path d="M0 0 C0.66 0.66 1.32 1.32 2 2 C1.67 2.99 1.34 3.98 1 5 C-1.5625 6.1875 -1.5625 6.1875 -4 7 C-2.92598892 4.08482708 -2.22189824 2.22189824 0 0 Z " fill="#101010" transform="translate(356,125)"/>
<path d="M0 0 C0 3 0 3 -2.5 5.6875 C-3.325 6.450625 -4.15 7.21375 -5 8 C-5.66 7.67 -6.32 7.34 -7 7 C-4.78071806 4.09197539 -3.07030857 2.04687238 0 0 Z " fill="#131313" transform="translate(384,105)"/>
<path d="M0 0 C5.57142857 5.14285714 5.57142857 5.14285714 6 9 C0.42857143 3.85714286 0.42857143 3.85714286 0 0 Z " fill="#0D0D0D" transform="translate(490,351)"/>
<path d="M0 0 C0.66 0 1.32 0 2 0 C3.65 2.97 5.3 5.94 7 9 C6.34 9 5.68 9 5 9 C3.7109375 7.5390625 3.7109375 7.5390625 2.375 5.625 C1.92898438 4.99851562 1.48296875 4.37203125 1.0234375 3.7265625 C0 2 0 2 0 0 Z " fill="#181818" transform="translate(496,319)"/>
<path d="M0 0 C0.66 0.33 1.32 0.66 2 1 C2 4 2 4 0.5 5.6875 C0.005 6.120625 -0.49 6.55375 -1 7 C-1.66 6.67 -2.32 6.34 -3 6 C-2.34 5.34 -1.68 4.68 -1 4 C-1 3.01 -1 2.02 -1 1 C-0.67 0.67 -0.34 0.34 0 0 Z " fill="#090909" transform="translate(474,91)"/>
<path d="M0 0 C-1.45255699 3.82946843 -3.42895561 5.12050295 -7 7 C-3.86206897 0 -3.86206897 0 0 0 Z " fill="#020202" transform="translate(438,83)"/>
</svg>
